<svg width="1496" height="300" viewBox="0 0 1496 300" fill="none" xmlns="http://www.w3.org/2000/svg">
<path d="M577.98 213.195C558.71 213.195 542.238 206.359 528.566 192.688C514.895 179.016 508.059 162.544 508.059 143.273C508.059 123.938 514.895 107.434 528.566 93.7617C542.238 80.0898 558.71 73.2539 577.98 73.2539C597.316 73.2539 613.82 80.0573 627.492 93.6641L608.156 113C599.823 104.667 589.764 100.5 577.98 100.5C566.262 100.5 556.203 104.667 547.805 113C539.471 121.398 535.305 131.49 535.305 143.273C535.305 154.992 539.471 165.051 547.805 173.449C556.203 181.783 566.262 185.949 577.98 185.949C589.829 185.949 599.921 181.783 608.254 173.449L627.492 192.688C613.82 206.359 597.316 213.195 577.98 213.195ZM647.219 72.9609H677.492V185.461H739.309V212.707H677.492V213H647.219V72.9609ZM817.629 213C801.548 213 787.844 207.303 776.516 195.91C765.122 184.582 759.426 170.878 759.426 154.797V73.2539H786.672V154.797C786.672 163.326 789.699 170.617 795.754 176.672C801.809 182.727 809.1 185.754 817.629 185.754C826.092 185.754 833.352 182.727 839.406 176.672C845.461 170.617 848.488 163.326 848.488 154.797V72.9609H875.734V154.797C875.734 170.878 870.07 184.582 858.742 195.91C847.349 207.303 833.645 213 817.629 213ZM952.102 121.008L959.23 124.719C967.694 129.732 974.107 134.908 978.469 140.246C984.654 147.733 987.746 156.327 987.746 166.027C987.746 178.853 983.254 189.823 974.27 198.938C965.285 208.052 954.445 212.74 941.75 213H940.871C928.111 212.74 917.238 208.052 908.254 198.938C899.27 189.823 894.777 178.853 894.777 166.027C894.777 163.879 894.94 161.698 895.266 159.484H923.195C922.805 160.526 922.512 161.568 922.316 162.609C922.121 163.716 922.023 164.855 922.023 166.027C922.023 171.431 923.911 176.021 927.688 179.797C931.398 183.638 935.923 185.624 941.262 185.754C946.6 185.624 951.125 183.638 954.836 179.797C958.612 176.021 960.5 171.431 960.5 166.027C960.5 163.033 959.556 160.331 957.668 157.922C955.454 154.992 951.451 151.802 945.656 148.352L938.625 144.738C937.844 144.217 936.509 143.469 934.621 142.492C927.72 138.846 922.577 135.331 919.191 131.945C913.267 125.956 909.979 118.534 909.328 109.68C908.612 100.174 911.607 91.8086 918.312 84.582C925.344 77.0299 934.035 73.1562 944.387 72.9609H944.973C954.738 73.0911 963.039 76.6393 969.875 83.6055C976.711 90.5716 980.129 98.9375 980.129 108.703C980.129 108.833 980.096 109.517 980.031 110.754H952.59C952.785 109.973 952.883 109.289 952.883 108.703C952.883 106.424 952.069 104.471 950.441 102.844C948.879 101.216 946.958 100.337 944.68 100.207C942.141 100.337 939.992 101.314 938.234 103.137C936.997 104.504 936.444 106.001 936.574 107.629C936.704 109.908 937.486 111.763 938.918 113.195C940.22 114.367 943.02 116.092 947.316 118.371C949.465 119.478 951.06 120.357 952.102 121.008ZM1098.59 73.2539H1130.71L1080.23 213H1057.96L1007.47 73.2539H1039.6L1069.09 154.895L1098.59 73.2539ZM1152.49 213.293V73.0586H1182.86V213.293H1152.49ZM1203.18 72.9609H1295.27V100.207H1233.45V147.961H1270.27V175.109H1233.45V185.559H1295.27V212.707H1203.18V72.9609ZM1453.47 72.9609H1485.6L1435.11 212.707H1412.84L1400.05 177.355L1387.26 212.707H1364.99L1314.5 72.9609H1346.63L1376.12 154.602L1383.94 132.824L1362.36 72.9609H1394.48L1400.05 88.293L1405.62 72.9609H1437.75L1416.16 132.824L1423.98 154.602L1453.47 72.9609Z" fill="#CDD6F4"/>
<path d="M21.4285 0C9.57593 0 0 9.57568 0 21.4287V85.7144C0 97.5669 9.57593 107.143 21.4285 107.143C33.2812 107.143 42.8572 97.5669 42.8572 85.7144V42.8569H85.7144C97.5669 42.8569 107.143 33.2812 107.143 21.4287C107.143 9.57568 97.5669 0 85.7144 0H21.4285Z" fill="#F38BA8"/>
<path d="M214.286 0C202.433 0 192.857 9.57568 192.857 21.4287C192.857 33.2812 202.433 42.8569 214.286 42.8569H257.143V85.7144C257.143 97.5669 266.719 107.143 278.572 107.143C290.424 107.143 300 97.5669 300 85.7144V21.4287C300 9.57568 290.424 0 278.572 0H214.286Z" fill="#89B4FA"/>
<path d="M42.8572 214.286C42.8572 202.433 33.2812 192.857 21.4285 192.857C9.57593 192.857 0 202.433 0 214.286V278.571C0 290.424 9.57593 300 21.4285 300H85.7144C97.5669 300 107.143 290.424 107.143 278.571C107.143 266.719 97.5669 257.143 85.7144 257.143H42.8572V214.286Z" fill="#89B4FA"/>
<path d="M300 214.286C300 202.433 290.424 192.857 278.572 192.857C266.719 192.857 257.143 202.433 257.143 214.286V257.143H214.286C202.433 257.143 192.857 266.719 192.857 278.571C192.857 290.424 202.433 300 214.286 300H278.572C290.424 300 300 290.424 300 278.571V214.286Z" fill="#F38BA8"/>
<circle cx="150" cy="107" r="24" fill="#F9E2AF"/>
<circle cx="107" cy="193" r="24" fill="#F9E2AF"/>
<circle cx="24" cy="24" r="24" transform="matrix(-1 0 0 1 217 169)" fill="#F9E2AF"/>
</svg>
