<svg width="1501" height="309" viewBox="0 0 1501 309" fill="none" xmlns="http://www.w3.org/2000/svg">
<circle cx="155" cy="111" r="24" fill="#F8D762"/>
<circle cx="112" cy="197" r="24" fill="#F8D762"/>
<circle cx="24" cy="24" r="24" transform="matrix(-1 0 0 1 222 173)" fill="#F8D762"/>
<path d="M582.98 232.195C563.71 232.195 547.238 225.359 533.566 211.688C519.895 198.016 513.059 181.544 513.059 162.273C513.059 142.938 519.895 126.434 533.566 112.762C547.238 99.0898 563.71 92.2539 582.98 92.2539C602.316 92.2539 618.82 99.0573 632.492 112.664L613.156 132C604.823 123.667 594.764 119.5 582.98 119.5C571.262 119.5 561.203 123.667 552.805 132C544.471 140.398 540.305 150.49 540.305 162.273C540.305 173.992 544.471 184.051 552.805 192.449C561.203 200.783 571.262 204.949 582.98 204.949C594.829 204.949 604.921 200.783 613.254 192.449L632.492 211.688C618.82 225.359 602.316 232.195 582.98 232.195ZM652.219 91.9609H682.492V204.461H744.309V231.707H682.492V232H652.219V91.9609ZM822.629 232C806.548 232 792.844 226.303 781.516 214.91C770.122 203.582 764.426 189.878 764.426 173.797V92.2539H791.672V173.797C791.672 182.326 794.699 189.617 800.754 195.672C806.809 201.727 814.1 204.754 822.629 204.754C831.092 204.754 838.352 201.727 844.406 195.672C850.461 189.617 853.488 182.326 853.488 173.797V91.9609H880.734V173.797C880.734 189.878 875.07 203.582 863.742 214.91C852.349 226.303 838.645 232 822.629 232ZM957.102 140.008L964.23 143.719C972.694 148.732 979.107 153.908 983.469 159.246C989.654 166.733 992.746 175.327 992.746 185.027C992.746 197.853 988.254 208.823 979.27 217.938C970.285 227.052 959.445 231.74 946.75 232H945.871C933.111 231.74 922.238 227.052 913.254 217.938C904.27 208.823 899.777 197.853 899.777 185.027C899.777 182.879 899.94 180.698 900.266 178.484H928.195C927.805 179.526 927.512 180.568 927.316 181.609C927.121 182.716 927.023 183.855 927.023 185.027C927.023 190.431 928.911 195.021 932.688 198.797C936.398 202.638 940.923 204.624 946.262 204.754C951.6 204.624 956.125 202.638 959.836 198.797C963.612 195.021 965.5 190.431 965.5 185.027C965.5 182.033 964.556 179.331 962.668 176.922C960.454 173.992 956.451 170.802 950.656 167.352L943.625 163.738C942.844 163.217 941.509 162.469 939.621 161.492C932.72 157.846 927.577 154.331 924.191 150.945C918.267 144.956 914.979 137.534 914.328 128.68C913.612 119.174 916.607 110.809 923.312 103.582C930.344 96.0299 939.035 92.1562 949.387 91.9609H949.973C959.738 92.0911 968.039 95.6393 974.875 102.605C981.711 109.572 985.129 117.938 985.129 127.703C985.129 127.833 985.096 128.517 985.031 129.754H957.59C957.785 128.973 957.883 128.289 957.883 127.703C957.883 125.424 957.069 123.471 955.441 121.844C953.879 120.216 951.958 119.337 949.68 119.207C947.141 119.337 944.992 120.314 943.234 122.137C941.997 123.504 941.444 125.001 941.574 126.629C941.704 128.908 942.486 130.763 943.918 132.195C945.22 133.367 948.02 135.092 952.316 137.371C954.465 138.478 956.06 139.357 957.102 140.008ZM1103.59 92.2539H1135.71L1085.23 232H1062.96L1012.47 92.2539H1044.6L1074.09 173.895L1103.59 92.2539ZM1157.49 232.293V92.0586H1187.86V232.293H1157.49ZM1208.18 91.9609H1300.27V119.207H1238.45V166.961H1275.27V194.109H1238.45V204.559H1300.27V231.707H1208.18V91.9609ZM1458.47 91.9609H1490.6L1440.11 231.707H1417.84L1405.05 196.355L1392.26 231.707H1369.99L1319.5 91.9609H1351.63L1381.12 173.602L1388.94 151.824L1367.36 91.9609H1399.48L1405.05 107.293L1410.62 91.9609H1442.75L1421.16 151.824L1428.98 173.602L1458.47 91.9609Z" fill="#E3E7F5"/>
<path d="M20 87V53.5C20 44.6152 23.5295 36.0944 29.8119 29.8119C36.0944 23.5295 44.6152 20 53.5 20H87" stroke="#EE436C" stroke-width="40" stroke-linecap="round" stroke-linejoin="round"/>
<path d="M20 222V255.5C20 264.385 23.5295 272.906 29.8119 279.188C36.0944 285.471 44.6152 289 53.5 289H87" stroke="#33B6FF" stroke-width="40" stroke-linecap="round" stroke-linejoin="round"/>
<path d="M222 20H255.5C264.385 20 272.906 23.5295 279.188 29.8119C285.471 36.0944 289 44.6152 289 53.5V87" stroke="#33B6FF" stroke-width="40" stroke-linecap="round" stroke-linejoin="round"/>
<path d="M222 289H255.5C264.385 289 272.906 285.471 279.188 279.188C285.471 272.906 289 264.385 289 255.5V222" stroke="#EE436C" stroke-width="40" stroke-linecap="round" stroke-linejoin="round"/>
</svg>
