<svg width="626" height="678" viewBox="0 0 626 678" fill="none" xmlns="http://www.w3.org/2000/svg">
<rect x="160" y="1" width="288" height="78" rx="4" fill="#262D3E" stroke="#35E7A7" stroke-width="2"/>
<path d="M265.48 45.592C265.032 46.7867 264.392 47.8213 263.56 48.696C262.728 49.5493 261.747 50.2 260.616 50.648C259.507 51.096 258.291 51.32 256.968 51.32C254.963 51.32 253.224 50.8827 251.752 50.008C250.301 49.112 249.171 47.8533 248.36 46.232C247.571 44.6107 247.176 42.68 247.176 40.44C247.176 38.2 247.571 36.2693 248.36 34.648C249.171 33.0267 250.301 31.7787 251.752 30.904C253.224 30.008 254.941 29.56 256.904 29.56C258.269 29.56 259.485 29.752 260.552 30.136C261.619 30.4987 262.525 31.0533 263.272 31.8C264.04 32.5253 264.648 33.4213 265.096 34.488L262.568 35.672C262.099 34.456 261.416 33.5387 260.52 32.92C259.645 32.28 258.504 31.96 257.096 31.96C255.667 31.96 254.408 32.3013 253.32 32.984C252.232 33.6453 251.379 34.6053 250.76 35.864C250.163 37.1227 249.864 38.648 249.864 40.44C249.864 42.2107 250.152 43.736 250.728 45.016C251.304 46.2747 252.125 47.2453 253.192 47.928C254.259 48.5893 255.517 48.92 256.968 48.92C258.376 48.92 259.603 48.568 260.648 47.864C261.693 47.1387 262.451 46.0613 262.92 44.632L265.48 45.592ZM277.178 29.56C279.034 29.56 280.634 29.944 281.978 30.712C283.322 31.4587 284.442 32.568 285.338 34.04L283.194 35.704C282.404 34.3387 281.508 33.3787 280.506 32.824C279.524 32.248 278.33 31.96 276.922 31.96C275.791 31.96 274.852 32.12 274.106 32.44C273.38 32.76 272.847 33.1867 272.506 33.72C272.164 34.232 271.994 34.8187 271.994 35.48C271.994 36.2267 272.228 36.888 272.698 37.464C273.167 38.0187 274.106 38.456 275.514 38.776L280.09 39.8C282.116 40.248 283.524 40.9307 284.314 41.848C285.124 42.744 285.53 43.864 285.53 45.208C285.53 46.4027 285.188 47.4693 284.506 48.408C283.844 49.3253 282.906 50.04 281.69 50.552C280.474 51.064 279.044 51.32 277.402 51.32C275.866 51.32 274.511 51.1173 273.338 50.712C272.186 50.2853 271.194 49.72 270.362 49.016C269.53 48.312 268.847 47.5227 268.314 46.648L270.554 44.824C270.959 45.6347 271.481 46.3493 272.122 46.968C272.762 47.5867 273.53 48.0667 274.426 48.408C275.343 48.7493 276.388 48.92 277.562 48.92C278.65 48.92 279.588 48.792 280.378 48.536C281.188 48.2587 281.807 47.864 282.234 47.352C282.66 46.8187 282.874 46.1787 282.874 45.432C282.874 44.7493 282.65 44.1413 282.202 43.608C281.754 43.0533 280.911 42.6373 279.674 42.36L274.714 41.24C273.412 40.9413 272.356 40.536 271.546 40.024C270.756 39.4907 270.18 38.872 269.818 38.168C269.476 37.4427 269.306 36.664 269.306 35.832C269.306 34.7013 269.615 33.6667 270.234 32.728C270.874 31.768 271.78 31 272.954 30.424C274.148 29.848 275.556 29.56 277.178 29.56ZM306.903 29.88L298.903 51H295.991L287.959 29.88H290.711L296.087 44.472L297.431 48.664L298.775 44.504L304.151 29.88H306.903ZM323.641 48.6H335.737V51H321.081V29.88H323.641V48.6ZM345.881 34.68C347.396 34.68 348.729 35.0107 349.881 35.672C351.055 36.3333 351.972 37.2933 352.633 38.552C353.295 39.7893 353.625 41.272 353.625 43C353.625 44.728 353.295 46.2213 352.633 47.48C351.972 48.7173 351.055 49.6667 349.881 50.328C348.729 50.9893 347.396 51.32 345.881 51.32C344.388 51.32 343.055 50.9893 341.881 50.328C340.708 49.6667 339.791 48.7173 339.129 47.48C338.468 46.2213 338.137 44.728 338.137 43C338.137 41.272 338.468 39.7893 339.129 38.552C339.791 37.2933 340.708 36.3333 341.881 35.672C343.055 35.0107 344.388 34.68 345.881 34.68ZM345.881 36.888C344.793 36.888 343.865 37.1333 343.097 37.624C342.329 38.1147 341.732 38.8187 341.305 39.736C340.9 40.632 340.697 41.72 340.697 43C340.697 44.2587 340.9 45.3467 341.305 46.264C341.732 47.1813 342.329 47.8853 343.097 48.376C343.865 48.8667 344.793 49.112 345.881 49.112C346.969 49.112 347.897 48.8667 348.665 48.376C349.433 47.8853 350.02 47.1813 350.425 46.264C350.852 45.3467 351.065 44.2587 351.065 43C351.065 41.72 350.852 40.632 350.425 39.736C350.02 38.8187 349.433 38.1147 348.665 37.624C347.897 37.1333 346.969 36.888 345.881 36.888ZM367.789 40.664C367.789 39.4693 367.469 38.552 366.829 37.912C366.189 37.2507 365.282 36.92 364.109 36.92C362.999 36.92 362.061 37.1653 361.293 37.656C360.525 38.1253 359.959 38.8933 359.597 39.96L357.517 38.68C357.943 37.4853 358.733 36.5253 359.885 35.8C361.037 35.0533 362.466 34.68 364.173 34.68C365.325 34.68 366.37 34.8827 367.309 35.288C368.247 35.672 368.983 36.2693 369.517 37.08C370.071 37.8693 370.349 38.8933 370.349 40.152V47.896C370.349 48.664 370.754 49.048 371.565 49.048C371.97 49.048 372.365 48.9947 372.749 48.888L372.621 50.904C372.194 51.1173 371.639 51.224 370.957 51.224C370.338 51.224 369.783 51.1067 369.293 50.872C368.802 50.6373 368.418 50.2853 368.141 49.816C367.863 49.3253 367.725 48.7173 367.725 47.992V47.672L368.365 47.768C368.109 48.6 367.671 49.2827 367.053 49.816C366.434 50.328 365.741 50.712 364.973 50.968C364.205 51.2027 363.447 51.32 362.701 51.32C361.762 51.32 360.887 51.16 360.077 50.84C359.266 50.52 358.615 50.04 358.125 49.4C357.655 48.7387 357.421 47.928 357.421 46.968C357.421 45.7733 357.815 44.792 358.605 44.024C359.415 43.2347 360.535 42.7013 361.965 42.424L368.301 41.176V43.288L363.149 44.344C362.103 44.5573 361.325 44.856 360.813 45.24C360.301 45.624 360.045 46.1573 360.045 46.84C360.045 47.5013 360.301 48.0453 360.813 48.472C361.346 48.8773 362.093 49.08 363.053 49.08C363.671 49.08 364.258 49.0053 364.813 48.856C365.389 48.6853 365.901 48.44 366.349 48.12C366.797 47.7787 367.149 47.3627 367.405 46.872C367.661 46.36 367.789 45.7627 367.789 45.08V40.664ZM382.81 51.32C381.487 51.32 380.271 50.9893 379.162 50.328C378.052 49.6667 377.167 48.7173 376.506 47.48C375.844 46.2213 375.514 44.728 375.514 43C375.514 41.2293 375.866 39.7253 376.57 38.488C377.274 37.2507 378.202 36.312 379.354 35.672C380.506 35.0107 381.743 34.68 383.066 34.68C384.388 34.68 385.53 35.0213 386.49 35.704C387.471 36.3867 388.122 37.2933 388.442 38.424L388.122 38.648V27.64H390.682V51H388.442L388.218 47.128L388.57 46.936C388.42 47.8747 388.058 48.6747 387.482 49.336C386.927 49.976 386.234 50.4667 385.402 50.808C384.591 51.1493 383.727 51.32 382.81 51.32ZM383.066 49.08C384.09 49.08 384.975 48.824 385.722 48.312C386.49 47.8 387.076 47.0747 387.482 46.136C387.908 45.176 388.122 44.056 388.122 42.776C388.122 41.56 387.908 40.5147 387.482 39.64C387.076 38.7653 386.5 38.0933 385.754 37.624C385.028 37.1547 384.175 36.92 383.194 36.92C381.572 36.92 380.314 37.4747 379.418 38.584C378.522 39.6933 378.074 41.1653 378.074 43C378.074 44.8347 378.511 46.3067 379.386 47.416C380.26 48.5253 381.487 49.08 383.066 49.08ZM403.32 51.32C401.806 51.32 400.451 50.9893 399.256 50.328C398.083 49.6667 397.166 48.7173 396.504 47.48C395.843 46.2213 395.512 44.728 395.512 43C395.512 41.272 395.843 39.7893 396.504 38.552C397.166 37.2933 398.072 36.3333 399.224 35.672C400.376 35.0107 401.688 34.68 403.16 34.68C404.654 34.68 405.923 35 406.968 35.64C408.035 36.28 408.846 37.1547 409.4 38.264C409.955 39.352 410.232 40.5787 410.232 41.944C410.232 42.3067 410.222 42.6373 410.2 42.936C410.179 43.2347 410.147 43.5013 410.104 43.736H397.176V41.464H408.984L407.672 41.72C407.672 40.184 407.246 39 406.392 38.168C405.56 37.336 404.462 36.92 403.096 36.92C402.051 36.92 401.144 37.1653 400.376 37.656C399.63 38.1253 399.043 38.8187 398.616 39.736C398.211 40.632 398.008 41.72 398.008 43C398.008 44.2587 398.222 45.3467 398.648 46.264C399.075 47.1813 399.672 47.8853 400.44 48.376C401.23 48.8453 402.168 49.08 403.256 49.08C404.43 49.08 405.379 48.856 406.104 48.408C406.851 47.96 407.448 47.352 407.896 46.584L409.912 47.768C409.507 48.4933 408.984 49.1227 408.344 49.656C407.726 50.1893 406.99 50.6053 406.136 50.904C405.304 51.1813 404.366 51.32 403.32 51.32ZM415.101 51V35H417.181L417.533 37.624C417.981 36.6427 418.632 35.9067 419.485 35.416C420.36 34.9253 421.416 34.68 422.653 34.68C422.93 34.68 423.229 34.7013 423.549 34.744C423.89 34.7867 424.178 34.872 424.413 35L423.965 37.336C423.73 37.2507 423.474 37.1867 423.197 37.144C422.92 37.1013 422.525 37.08 422.013 37.08C421.352 37.08 420.68 37.272 419.997 37.656C419.336 38.04 418.781 38.6267 418.333 39.416C417.885 40.184 417.661 41.1653 417.661 42.36V51H415.101Z" fill="#35E7A7"/>
<path d="M209 54.3158H196.368C195.475 54.3158 194.618 53.9609 193.987 53.3292C193.355 52.6975 193 51.8407 193 50.9474V27.3684C193 26.4751 193.355 25.6183 193.987 24.9866C194.618 24.3549 195.475 24 196.368 24H219.947C220.841 24 221.697 24.3549 222.329 24.9866C222.961 25.6183 223.316 26.4751 223.316 27.3684V40" stroke="#35E7A7" stroke-width="3" stroke-linecap="round" stroke-linejoin="round"/>
<path d="M193 35.7891H223.316" stroke="#35E7A7" stroke-width="3" stroke-linecap="round" stroke-linejoin="round"/>
<path d="M204.789 24V54.3158" stroke="#35E7A7" stroke-width="3" stroke-linecap="round" stroke-linejoin="round"/>
<path d="M214.895 50.9473H225" stroke="#35E7A7" stroke-width="3" stroke-linecap="round" stroke-linejoin="round"/>
<path d="M219.947 45.8945V55.9998" stroke="#35E7A7" stroke-width="3" stroke-linecap="round" stroke-linejoin="round"/>
<rect x="1" y="359" width="296" height="78" rx="4" fill="#262D3E" stroke="#33B6FF" stroke-width="2"/>
<path d="M104.304 387.88V390.28H96.944V409H94.384V390.28H87.024V387.88H104.304ZM106.07 409V393H108.15L108.502 395.624C108.95 394.643 109.6 393.907 110.454 393.416C111.328 392.925 112.384 392.68 113.622 392.68C113.899 392.68 114.198 392.701 114.518 392.744C114.859 392.787 115.147 392.872 115.382 393L114.934 395.336C114.699 395.251 114.443 395.187 114.166 395.144C113.888 395.101 113.494 395.08 112.982 395.08C112.32 395.08 111.648 395.272 110.966 395.656C110.304 396.04 109.75 396.627 109.302 397.416C108.854 398.184 108.63 399.165 108.63 400.36V409H106.07ZM128.039 398.664C128.039 397.469 127.719 396.552 127.079 395.912C126.439 395.251 125.532 394.92 124.359 394.92C123.249 394.92 122.311 395.165 121.543 395.656C120.775 396.125 120.209 396.893 119.847 397.96L117.767 396.68C118.193 395.485 118.983 394.525 120.135 393.8C121.287 393.053 122.716 392.68 124.423 392.68C125.575 392.68 126.62 392.883 127.559 393.288C128.497 393.672 129.233 394.269 129.767 395.08C130.321 395.869 130.599 396.893 130.599 398.152V405.896C130.599 406.664 131.004 407.048 131.815 407.048C132.22 407.048 132.615 406.995 132.999 406.888L132.871 408.904C132.444 409.117 131.889 409.224 131.207 409.224C130.588 409.224 130.033 409.107 129.543 408.872C129.052 408.637 128.668 408.285 128.391 407.816C128.113 407.325 127.975 406.717 127.975 405.992V405.672L128.615 405.768C128.359 406.6 127.921 407.283 127.303 407.816C126.684 408.328 125.991 408.712 125.223 408.968C124.455 409.203 123.697 409.32 122.951 409.32C122.012 409.32 121.137 409.16 120.327 408.84C119.516 408.52 118.865 408.04 118.375 407.4C117.905 406.739 117.671 405.928 117.671 404.968C117.671 403.773 118.065 402.792 118.855 402.024C119.665 401.235 120.785 400.701 122.215 400.424L128.551 399.176V401.288L123.399 402.344C122.353 402.557 121.575 402.856 121.063 403.24C120.551 403.624 120.295 404.157 120.295 404.84C120.295 405.501 120.551 406.045 121.063 406.472C121.596 406.877 122.343 407.08 123.303 407.08C123.921 407.08 124.508 407.005 125.063 406.856C125.639 406.685 126.151 406.44 126.599 406.12C127.047 405.779 127.399 405.363 127.655 404.872C127.911 404.36 128.039 403.763 128.039 403.08V398.664ZM136.82 409V393H139.06L139.284 396.584L138.868 396.232C139.209 395.379 139.668 394.696 140.244 394.184C140.82 393.651 141.481 393.267 142.228 393.032C142.996 392.797 143.785 392.68 144.596 392.68C145.748 392.68 146.793 392.904 147.732 393.352C148.67 393.779 149.417 394.44 149.972 395.336C150.548 396.232 150.836 397.373 150.836 398.76V409H148.276V399.656C148.276 397.885 147.892 396.659 147.124 395.976C146.377 395.272 145.449 394.92 144.34 394.92C143.572 394.92 142.804 395.101 142.036 395.464C141.268 395.827 140.628 396.413 140.116 397.224C139.625 398.035 139.38 399.123 139.38 400.488V409H136.82ZM162.392 409.32C160.835 409.32 159.395 408.989 158.072 408.328C156.771 407.667 155.768 406.728 155.064 405.512L157.24 403.944C157.71 404.925 158.392 405.693 159.288 406.248C160.206 406.803 161.304 407.08 162.584 407.08C163.715 407.08 164.6 406.867 165.24 406.44C165.88 405.992 166.2 405.416 166.2 404.712C166.2 404.264 166.051 403.859 165.752 403.496C165.475 403.112 164.931 402.835 164.12 402.664L160.28 401.864C158.723 401.544 157.603 401.011 156.92 400.264C156.259 399.517 155.928 398.589 155.928 397.48C155.928 396.605 156.174 395.805 156.664 395.08C157.176 394.355 157.891 393.779 158.808 393.352C159.747 392.904 160.846 392.68 162.104 392.68C163.683 392.68 165.016 392.989 166.104 393.608C167.192 394.227 168.003 395.101 168.536 396.232L166.392 397.64C166.03 396.701 165.443 396.019 164.632 395.592C163.822 395.144 162.979 394.92 162.104 394.92C161.336 394.92 160.675 395.027 160.12 395.24C159.587 395.453 159.171 395.752 158.872 396.136C158.595 396.499 158.456 396.915 158.456 397.384C158.456 397.853 158.616 398.291 158.936 398.696C159.256 399.08 159.854 399.357 160.728 399.528L164.728 400.36C166.222 400.659 167.267 401.149 167.864 401.832C168.462 402.515 168.76 403.347 168.76 404.328C168.76 405.331 168.494 406.216 167.96 406.984C167.427 407.731 166.68 408.307 165.72 408.712C164.76 409.117 163.651 409.32 162.392 409.32ZM180.003 385.48C180.558 385.48 181.081 385.544 181.571 385.672C182.062 385.8 182.446 385.981 182.723 386.216L182.051 388.296C181.795 388.125 181.518 388.008 181.219 387.944C180.921 387.859 180.59 387.816 180.227 387.816C179.31 387.816 178.595 388.04 178.083 388.488C177.571 388.915 177.315 389.608 177.315 390.568V393V393.832V409H174.755V390.312C174.755 389.608 174.862 388.957 175.075 388.36C175.289 387.763 175.609 387.251 176.035 386.824C176.483 386.397 177.038 386.067 177.699 385.832C178.361 385.597 179.129 385.48 180.003 385.48ZM182.659 393V395.208H171.555V393H182.659ZM192.256 392.68C193.771 392.68 195.104 393.011 196.256 393.672C197.43 394.333 198.347 395.293 199.008 396.552C199.67 397.789 200 399.272 200 401C200 402.728 199.67 404.221 199.008 405.48C198.347 406.717 197.43 407.667 196.256 408.328C195.104 408.989 193.771 409.32 192.256 409.32C190.763 409.32 189.43 408.989 188.256 408.328C187.083 407.667 186.166 406.717 185.504 405.48C184.843 404.221 184.512 402.728 184.512 401C184.512 399.272 184.843 397.789 185.504 396.552C186.166 395.293 187.083 394.333 188.256 393.672C189.43 393.011 190.763 392.68 192.256 392.68ZM192.256 394.888C191.168 394.888 190.24 395.133 189.472 395.624C188.704 396.115 188.107 396.819 187.68 397.736C187.275 398.632 187.072 399.72 187.072 401C187.072 402.259 187.275 403.347 187.68 404.264C188.107 405.181 188.704 405.885 189.472 406.376C190.24 406.867 191.168 407.112 192.256 407.112C193.344 407.112 194.272 406.867 195.04 406.376C195.808 405.885 196.395 405.181 196.8 404.264C197.227 403.347 197.44 402.259 197.44 401C197.44 399.72 197.227 398.632 196.8 397.736C196.395 396.819 195.808 396.115 195.04 395.624C194.272 395.133 193.344 394.888 192.256 394.888ZM204.82 409V393H206.9L207.252 395.624C207.7 394.643 208.35 393.907 209.204 393.416C210.078 392.925 211.134 392.68 212.372 392.68C212.649 392.68 212.948 392.701 213.268 392.744C213.609 392.787 213.897 392.872 214.132 393L213.684 395.336C213.449 395.251 213.193 395.187 212.916 395.144C212.638 395.101 212.244 395.08 211.732 395.08C211.07 395.08 210.398 395.272 209.716 395.656C209.054 396.04 208.5 396.627 208.052 397.416C207.604 398.184 207.38 399.165 207.38 400.36V409H204.82ZM217.882 409V393H220.122L220.282 395.496C220.858 394.515 221.605 393.8 222.522 393.352C223.461 392.904 224.421 392.68 225.402 392.68C226.533 392.68 227.6 392.936 228.602 393.448C229.605 393.96 230.373 394.749 230.906 395.816C231.248 395.091 231.728 394.504 232.346 394.056C232.965 393.587 233.637 393.245 234.362 393.032C235.109 392.797 235.813 392.68 236.474 392.68C237.498 392.68 238.469 392.893 239.386 393.32C240.325 393.747 241.093 394.408 241.69 395.304C242.288 396.2 242.586 397.352 242.586 398.76V409H240.026V399.016C240.026 397.565 239.664 396.52 238.938 395.88C238.213 395.24 237.317 394.92 236.25 394.92C235.418 394.92 234.64 395.123 233.914 395.528C233.189 395.933 232.602 396.531 232.154 397.32C231.728 398.109 231.514 399.08 231.514 400.232V409H228.954V399.016C228.954 397.565 228.592 396.52 227.866 395.88C227.141 395.24 226.245 394.92 225.178 394.92C224.474 394.92 223.749 395.112 223.002 395.496C222.277 395.859 221.669 396.445 221.178 397.256C220.688 398.067 220.442 399.133 220.442 400.456V409H217.882ZM255.07 409.32C253.556 409.32 252.201 408.989 251.006 408.328C249.833 407.667 248.916 406.717 248.254 405.48C247.593 404.221 247.262 402.728 247.262 401C247.262 399.272 247.593 397.789 248.254 396.552C248.916 395.293 249.822 394.333 250.974 393.672C252.126 393.011 253.438 392.68 254.91 392.68C256.404 392.68 257.673 393 258.718 393.64C259.785 394.28 260.596 395.155 261.15 396.264C261.705 397.352 261.982 398.579 261.982 399.944C261.982 400.307 261.972 400.637 261.95 400.936C261.929 401.235 261.897 401.501 261.854 401.736H248.926V399.464H260.734L259.422 399.72C259.422 398.184 258.996 397 258.142 396.168C257.31 395.336 256.212 394.92 254.846 394.92C253.801 394.92 252.894 395.165 252.126 395.656C251.38 396.125 250.793 396.819 250.366 397.736C249.961 398.632 249.758 399.72 249.758 401C249.758 402.259 249.972 403.347 250.398 404.264C250.825 405.181 251.422 405.885 252.19 406.376C252.98 406.845 253.918 407.08 255.006 407.08C256.18 407.08 257.129 406.856 257.854 406.408C258.601 405.96 259.198 405.352 259.646 404.584L261.662 405.768C261.257 406.493 260.734 407.123 260.094 407.656C259.476 408.189 258.74 408.605 257.886 408.904C257.054 409.181 256.116 409.32 255.07 409.32ZM266.851 409V393H268.931L269.283 395.624C269.731 394.643 270.382 393.907 271.235 393.416C272.11 392.925 273.166 392.68 274.403 392.68C274.68 392.68 274.979 392.701 275.299 392.744C275.64 392.787 275.928 392.872 276.163 393L275.715 395.336C275.48 395.251 275.224 395.187 274.947 395.144C274.67 395.101 274.275 395.08 273.763 395.08C273.102 395.08 272.43 395.272 271.747 395.656C271.086 396.04 270.531 396.627 270.083 397.416C269.635 398.184 269.411 399.165 269.411 400.36V409H266.851Z" fill="#33B6FF"/>
<path d="M52.1875 399.125C50.6791 399.125 49.2324 399.724 48.1658 400.791C47.0992 401.857 46.5 403.304 46.5 404.812V406.438C46.5 407.946 47.0992 409.393 48.1658 410.459C49.2324 411.526 50.6791 412.125 52.1875 412.125C53.6959 412.125 55.1426 411.526 56.2092 410.459C57.2758 409.393 57.875 407.946 57.875 406.438V403.512" stroke="#33B6FF" stroke-width="3" stroke-linecap="round" stroke-linejoin="round"/>
<path d="M40.8125 399.125C42.3209 399.125 43.7676 399.724 44.8342 400.791C45.9008 401.857 46.5 403.304 46.5 404.812V406.438C46.5 407.946 45.9008 409.393 44.8342 410.459C43.7676 411.526 42.3209 412.125 40.8125 412.125C39.3041 412.125 37.8574 411.526 36.7908 410.459C35.7242 409.393 35.125 407.946 35.125 406.438V403.512" stroke="#33B6FF" stroke-width="3" stroke-linecap="round" stroke-linejoin="round"/>
<path d="M55.4375 404C56.9459 404 58.3926 403.401 59.4592 402.334C60.5258 401.268 61.125 399.821 61.125 398.312C61.125 396.804 60.5258 395.357 59.4592 394.291C58.3926 393.224 56.9459 392.625 55.4375 392.625H54.625" stroke="#33B6FF" stroke-width="3" stroke-linecap="round" stroke-linejoin="round"/>
<path d="M57.875 393.113V388.562C57.875 387.054 57.2758 385.607 56.2092 384.541C55.1426 383.474 53.6959 382.875 52.1875 382.875C50.6791 382.875 49.2324 383.474 48.1658 384.541C47.0992 385.607 46.5 387.054 46.5 388.562" stroke="#33B6FF" stroke-width="3" stroke-linecap="round" stroke-linejoin="round"/>
<path d="M37.5625 404C36.0541 404 34.6074 403.401 33.5408 402.334C32.4742 401.268 31.875 399.821 31.875 398.312C31.875 396.804 32.4742 395.357 33.5408 394.291C34.6074 393.224 36.0541 392.625 37.5625 392.625H38.375" stroke="#33B6FF" stroke-width="3" stroke-linecap="round" stroke-linejoin="round"/>
<path d="M35.125 393.113V388.562C35.125 387.054 35.7242 385.607 36.7908 384.541C37.8574 383.474 39.3041 382.875 40.8125 382.875C42.3209 382.875 43.7676 383.474 44.8342 384.541C45.9008 385.607 46.5 387.054 46.5 388.562V404.812" stroke="#33B6FF" stroke-width="3" stroke-linecap="round" stroke-linejoin="round"/>
<rect x="202" y="599" width="260" height="78" rx="4" fill="#262D3E" stroke="#EE436C" stroke-width="2"/>
<path d="M307.032 627.88V649H304.472V627.88H307.032ZM293.016 627.88V649H290.456V627.88H293.016ZM305.656 637.096V639.496H291.8V637.096H305.656ZM320.772 627.88C324.079 627.88 326.671 628.797 328.548 630.632C330.447 632.445 331.396 635.048 331.396 638.44C331.396 641.832 330.447 644.445 328.548 646.28C326.671 648.093 324.079 649 320.772 649H313.956V627.88H320.772ZM321.028 646.6C323.439 646.6 325.316 645.885 326.66 644.456C328.025 643.005 328.708 641 328.708 638.44C328.708 635.88 328.025 633.885 326.66 632.456C325.316 631.005 323.439 630.28 321.028 630.28H316.516V646.6H321.028ZM337.019 649V627.88H344.539C347.035 627.88 348.859 628.403 350.01 629.448C351.163 630.493 351.739 631.912 351.739 633.704C351.739 634.771 351.429 635.741 350.811 636.616C350.192 637.469 349.317 638.013 348.187 638.248V638.28C349.445 638.515 350.437 639.091 351.163 640.008C351.909 640.904 352.283 641.928 352.283 643.08C352.283 644.872 351.611 646.312 350.267 647.4C348.923 648.467 347.003 649 344.507 649H337.019ZM339.579 646.6H345.115C346.629 646.6 347.749 646.291 348.475 645.672C349.221 645.053 349.595 644.189 349.595 643.08C349.595 641.949 349.221 641.085 348.475 640.488C347.749 639.869 346.629 639.56 345.115 639.56H339.579V646.6ZM339.579 637.16H344.571C347.557 637.16 349.051 636.008 349.051 633.704C349.051 631.421 347.557 630.28 344.571 630.28H339.579V637.16ZM364.709 627.56C366.565 627.56 368.165 627.944 369.509 628.712C370.853 629.459 371.973 630.568 372.869 632.04L370.725 633.704C369.935 632.339 369.039 631.379 368.037 630.824C367.055 630.248 365.861 629.96 364.453 629.96C363.322 629.96 362.383 630.12 361.637 630.44C360.911 630.76 360.378 631.187 360.037 631.72C359.695 632.232 359.525 632.819 359.525 633.48C359.525 634.227 359.759 634.888 360.229 635.464C360.698 636.019 361.637 636.456 363.045 636.776L367.621 637.8C369.647 638.248 371.055 638.931 371.845 639.848C372.655 640.744 373.061 641.864 373.061 643.208C373.061 644.403 372.719 645.469 372.037 646.408C371.375 647.325 370.437 648.04 369.221 648.552C368.005 649.064 366.575 649.32 364.933 649.32C363.397 649.32 362.042 649.117 360.869 648.712C359.717 648.285 358.725 647.72 357.893 647.016C357.061 646.312 356.378 645.523 355.845 644.648L358.085 642.824C358.49 643.635 359.013 644.349 359.653 644.968C360.293 645.587 361.061 646.067 361.957 646.408C362.874 646.749 363.919 646.92 365.093 646.92C366.181 646.92 367.119 646.792 367.909 646.536C368.719 646.259 369.338 645.864 369.765 645.352C370.191 644.819 370.405 644.179 370.405 643.432C370.405 642.749 370.181 642.141 369.733 641.608C369.285 641.053 368.442 640.637 367.205 640.36L362.245 639.24C360.943 638.941 359.887 638.536 359.077 638.024C358.287 637.491 357.711 636.872 357.349 636.168C357.007 635.443 356.837 634.664 356.837 633.832C356.837 632.701 357.146 631.667 357.765 630.728C358.405 629.768 359.311 629 360.485 628.424C361.679 627.848 363.087 627.56 364.709 627.56ZM395.449 643.592C395.001 644.787 394.361 645.821 393.529 646.696C392.697 647.549 391.715 648.2 390.585 648.648C389.475 649.096 388.259 649.32 386.937 649.32C384.931 649.32 383.193 648.883 381.721 648.008C380.27 647.112 379.139 645.853 378.329 644.232C377.539 642.611 377.145 640.68 377.145 638.44C377.145 636.2 377.539 634.269 378.329 632.648C379.139 631.027 380.27 629.779 381.721 628.904C383.193 628.008 384.91 627.56 386.873 627.56C388.238 627.56 389.454 627.752 390.521 628.136C391.587 628.499 392.494 629.053 393.241 629.8C394.009 630.525 394.617 631.421 395.065 632.488L392.537 633.672C392.067 632.456 391.385 631.539 390.489 630.92C389.614 630.28 388.473 629.96 387.065 629.96C385.635 629.96 384.377 630.301 383.289 630.984C382.201 631.645 381.347 632.605 380.729 633.864C380.131 635.123 379.833 636.648 379.833 638.44C379.833 640.211 380.121 641.736 380.697 643.016C381.273 644.275 382.094 645.245 383.161 645.928C384.227 646.589 385.486 646.92 386.937 646.92C388.345 646.92 389.571 646.568 390.617 645.864C391.662 645.139 392.419 644.061 392.889 642.632L395.449 643.592ZM417.194 649H414.474L412.234 643.144H402.666L400.426 649H397.738L405.962 627.88H409.002L417.194 649ZM403.594 640.744H411.306L407.434 630.344L403.594 640.744ZM438.063 627.88V649H434.895L426.063 634.856L423.823 630.888H423.791L423.919 634.088V649H421.487V627.88H424.655L433.455 641.96L435.727 646.024H435.759L435.631 642.792V627.88H438.063Z" fill="#EE436C"/>
<path d="M233.25 634.25C233.25 634.648 233.408 635.029 233.689 635.311C233.971 635.592 234.352 635.75 234.75 635.75C235.148 635.75 235.529 635.592 235.811 635.311C236.092 635.029 236.25 634.648 236.25 634.25C236.25 633.852 236.092 633.471 235.811 633.189C235.529 632.908 235.148 632.75 234.75 632.75C234.352 632.75 233.971 632.908 233.689 633.189C233.408 633.471 233.25 633.852 233.25 634.25Z" stroke="#EE436C" stroke-width="3" stroke-linecap="round" stroke-linejoin="round"/>
<path d="M240.75 626.75C240.75 627.148 240.908 627.529 241.189 627.811C241.471 628.092 241.852 628.25 242.25 628.25C242.648 628.25 243.029 628.092 243.311 627.811C243.592 627.529 243.75 627.148 243.75 626.75C243.75 626.352 243.592 625.971 243.311 625.689C243.029 625.408 242.648 625.25 242.25 625.25C241.852 625.25 241.471 625.408 241.189 625.689C240.908 625.971 240.75 626.352 240.75 626.75Z" stroke="#EE436C" stroke-width="3" stroke-linecap="round" stroke-linejoin="round"/>
<path d="M240.75 641.75C240.75 642.148 240.908 642.529 241.189 642.811C241.471 643.092 241.852 643.25 242.25 643.25C242.648 643.25 243.029 643.092 243.311 642.811C243.592 642.529 243.75 642.148 243.75 641.75C243.75 641.352 243.592 640.971 243.311 640.689C243.029 640.408 242.648 640.25 242.25 640.25C241.852 640.25 241.471 640.408 241.189 640.689C240.908 640.971 240.75 641.352 240.75 641.75Z" stroke="#EE436C" stroke-width="3" stroke-linecap="round" stroke-linejoin="round"/>
<path d="M233.25 649.25C233.25 649.648 233.408 650.029 233.689 650.311C233.971 650.592 234.352 650.75 234.75 650.75C235.148 650.75 235.529 650.592 235.811 650.311C236.092 650.029 236.25 649.648 236.25 649.25C236.25 648.852 236.092 648.471 235.811 648.189C235.529 647.908 235.148 647.75 234.75 647.75C234.352 647.75 233.971 647.908 233.689 648.189C233.408 648.471 233.25 648.852 233.25 649.25Z" stroke="#EE436C" stroke-width="3" stroke-linecap="round" stroke-linejoin="round"/>
<path d="M248.25 634.25C248.25 634.648 248.408 635.029 248.689 635.311C248.971 635.592 249.352 635.75 249.75 635.75C250.148 635.75 250.529 635.592 250.811 635.311C251.092 635.029 251.25 634.648 251.25 634.25C251.25 633.852 251.092 633.471 250.811 633.189C250.529 632.908 250.148 632.75 249.75 632.75C249.352 632.75 248.971 632.908 248.689 633.189C248.408 633.471 248.25 633.852 248.25 634.25Z" stroke="#EE436C" stroke-width="3" stroke-linecap="round" stroke-linejoin="round"/>
<path d="M255.75 626.75C255.75 627.148 255.908 627.529 256.189 627.811C256.471 628.092 256.852 628.25 257.25 628.25C257.648 628.25 258.029 628.092 258.311 627.811C258.592 627.529 258.75 627.148 258.75 626.75C258.75 626.352 258.592 625.971 258.311 625.689C258.029 625.408 257.648 625.25 257.25 625.25C256.852 625.25 256.471 625.408 256.189 625.689C255.908 625.971 255.75 626.352 255.75 626.75Z" stroke="#EE436C" stroke-width="3" stroke-linecap="round" stroke-linejoin="round"/>
<path d="M248.25 649.25C248.25 649.648 248.408 650.029 248.689 650.311C248.971 650.592 249.352 650.75 249.75 650.75C250.148 650.75 250.529 650.592 250.811 650.311C251.092 650.029 251.25 649.648 251.25 649.25C251.25 648.852 251.092 648.471 250.811 648.189C250.529 647.908 250.148 647.75 249.75 647.75C249.352 647.75 248.971 647.908 248.689 648.189C248.408 648.471 248.25 648.852 248.25 649.25Z" stroke="#EE436C" stroke-width="3" stroke-linecap="round" stroke-linejoin="round"/>
<path d="M255.75 641.75C255.75 642.148 255.908 642.529 256.189 642.811C256.471 643.092 256.852 643.25 257.25 643.25C257.648 643.25 258.029 643.092 258.311 642.811C258.592 642.529 258.75 642.148 258.75 641.75C258.75 641.352 258.592 640.971 258.311 640.689C258.029 640.408 257.648 640.25 257.25 640.25C256.852 640.25 256.471 640.408 256.189 640.689C255.908 640.971 255.75 641.352 255.75 641.75Z" stroke="#EE436C" stroke-width="3" stroke-linecap="round" stroke-linejoin="round"/>
<rect x="322" y="198" width="303" height="78" rx="4" fill="#262D3E" stroke="#F9D763" stroke-width="2"/>
<path d="M413.968 226.56C415.973 226.56 417.701 227.008 419.152 227.904C420.624 228.779 421.755 230.027 422.544 231.648C423.355 233.269 423.76 235.2 423.76 237.44C423.76 239.68 423.355 241.611 422.544 243.232C421.755 244.853 420.624 246.112 419.152 247.008C417.701 247.883 415.973 248.32 413.968 248.32C411.963 248.32 410.224 247.883 408.752 247.008C407.301 246.112 406.171 244.853 405.36 243.232C404.571 241.611 404.176 239.68 404.176 237.44C404.176 235.2 404.571 233.269 405.36 231.648C406.171 230.027 407.301 228.779 408.752 227.904C410.224 227.008 411.963 226.56 413.968 226.56ZM413.968 228.96C412.517 228.96 411.259 229.301 410.192 229.984C409.125 230.645 408.304 231.616 407.728 232.896C407.152 234.155 406.864 235.669 406.864 237.44C406.864 239.211 407.152 240.736 407.728 242.016C408.304 243.275 409.125 244.245 410.192 244.928C411.259 245.589 412.517 245.92 413.968 245.92C415.44 245.92 416.699 245.589 417.744 244.928C418.811 244.245 419.632 243.275 420.208 242.016C420.784 240.736 421.072 239.211 421.072 237.44C421.072 235.669 420.784 234.155 420.208 232.896C419.632 231.616 418.811 230.645 417.744 229.984C416.699 229.301 415.44 228.96 413.968 228.96ZM434.706 248.32C433.682 248.32 432.711 248.128 431.794 247.744C430.898 247.36 430.162 246.741 429.586 245.888C429.031 245.013 428.754 243.883 428.754 242.496V232H431.314V241.824C431.314 243.445 431.666 244.565 432.37 245.184C433.074 245.781 434.066 246.08 435.345 246.08C435.943 246.08 436.53 245.984 437.106 245.792C437.682 245.579 438.194 245.259 438.642 244.832C439.111 244.384 439.474 243.819 439.73 243.136C440.007 242.453 440.146 241.643 440.146 240.704V232H442.706V248H440.466L440.306 245.568C439.751 246.528 438.994 247.232 438.034 247.68C437.095 248.107 435.986 248.32 434.706 248.32ZM452.44 227.456V243.584C452.44 244.373 452.664 244.96 453.112 245.344C453.56 245.728 454.136 245.92 454.84 245.92C455.458 245.92 455.992 245.813 456.44 245.6C456.888 245.387 457.293 245.099 457.656 244.736L458.552 246.88C458.061 247.328 457.474 247.68 456.792 247.936C456.13 248.192 455.362 248.32 454.488 248.32C453.677 248.32 452.92 248.181 452.216 247.904C451.512 247.605 450.946 247.147 450.52 246.528C450.114 245.888 449.901 245.056 449.88 244.032V228.16L452.44 227.456ZM458.264 232V234.208H446.68V232H458.264ZM464.502 224.64V243.936C464.502 244.747 464.651 245.312 464.95 245.632C465.248 245.931 465.728 246.08 466.39 246.08C466.816 246.08 467.168 246.048 467.446 245.984C467.723 245.92 468.096 245.803 468.566 245.632L468.15 247.872C467.808 248.021 467.435 248.128 467.03 248.192C466.624 248.277 466.208 248.32 465.782 248.32C464.48 248.32 463.51 247.968 462.87 247.264C462.251 246.56 461.942 245.483 461.942 244.032V224.64H464.502ZM473.131 228.928C472.555 228.928 472.086 228.757 471.723 228.416C471.382 228.053 471.211 227.584 471.211 227.008C471.211 226.432 471.382 225.973 471.723 225.632C472.086 225.269 472.555 225.088 473.131 225.088C473.707 225.088 474.166 225.269 474.507 225.632C474.87 225.973 475.051 226.432 475.051 227.008C475.051 227.584 474.87 228.053 474.507 228.416C474.166 228.757 473.707 228.928 473.131 228.928ZM474.411 232V248H471.851V232H474.411ZM487.039 248.32C485.524 248.32 484.17 247.989 482.975 247.328C481.802 246.667 480.884 245.717 480.223 244.48C479.562 243.221 479.231 241.728 479.231 240C479.231 238.272 479.562 236.789 480.223 235.552C480.884 234.293 481.791 233.333 482.943 232.672C484.095 232.011 485.407 231.68 486.879 231.68C488.372 231.68 489.642 232 490.687 232.64C491.754 233.28 492.564 234.155 493.119 235.264C493.674 236.352 493.951 237.579 493.951 238.944C493.951 239.307 493.94 239.637 493.919 239.936C493.898 240.235 493.866 240.501 493.823 240.736H480.895V238.464H492.703L491.391 238.72C491.391 237.184 490.964 236 490.111 235.168C489.279 234.336 488.18 233.92 486.815 233.92C485.77 233.92 484.863 234.165 484.095 234.656C483.348 235.125 482.762 235.819 482.335 236.736C481.93 237.632 481.727 238.72 481.727 240C481.727 241.259 481.94 242.347 482.367 243.264C482.794 244.181 483.391 244.885 484.159 245.376C484.948 245.845 485.887 246.08 486.975 246.08C488.148 246.08 489.098 245.856 489.823 245.408C490.57 244.96 491.167 244.352 491.615 243.584L493.631 244.768C493.226 245.493 492.703 246.123 492.063 246.656C491.444 247.189 490.708 247.605 489.855 247.904C489.023 248.181 488.084 248.32 487.039 248.32ZM498.82 248V232H500.9L501.252 234.624C501.7 233.643 502.35 232.907 503.204 232.416C504.078 231.925 505.134 231.68 506.372 231.68C506.649 231.68 506.948 231.701 507.268 231.744C507.609 231.787 507.897 231.872 508.132 232L507.684 234.336C507.449 234.251 507.193 234.187 506.916 234.144C506.638 234.101 506.244 234.08 505.732 234.08C505.07 234.08 504.398 234.272 503.716 234.656C503.054 235.04 502.5 235.627 502.052 236.416C501.604 237.184 501.38 238.165 501.38 239.36V248H498.82ZM530.519 226.88C532.673 226.88 534.401 227.435 535.703 228.544C537.004 229.653 537.655 231.157 537.655 233.056C537.655 234.955 536.993 236.437 535.671 237.504C534.369 238.549 532.641 239.072 530.487 239.072L530.263 239.232H525.079V248H522.519V226.88H530.519ZM530.487 236.832C532.001 236.832 533.121 236.523 533.847 235.904C534.593 235.264 534.967 234.315 534.967 233.056C534.967 231.797 534.593 230.859 533.847 230.24C533.121 229.6 532.001 229.28 530.487 229.28H525.079V236.832H530.487ZM531.959 237.344L538.935 248H535.895L529.815 238.752L531.959 237.344ZM552.664 237.664C552.664 236.469 552.344 235.552 551.704 234.912C551.064 234.251 550.157 233.92 548.984 233.92C547.874 233.92 546.936 234.165 546.168 234.656C545.4 235.125 544.834 235.893 544.472 236.96L542.392 235.68C542.818 234.485 543.608 233.525 544.76 232.8C545.912 232.053 547.341 231.68 549.048 231.68C550.2 231.68 551.245 231.883 552.184 232.288C553.122 232.672 553.858 233.269 554.392 234.08C554.946 234.869 555.224 235.893 555.224 237.152V244.896C555.224 245.664 555.629 246.048 556.44 246.048C556.845 246.048 557.24 245.995 557.624 245.888L557.496 247.904C557.069 248.117 556.514 248.224 555.832 248.224C555.213 248.224 554.658 248.107 554.168 247.872C553.677 247.637 553.293 247.285 553.016 246.816C552.738 246.325 552.6 245.717 552.6 244.992V244.672L553.24 244.768C552.984 245.6 552.546 246.283 551.928 246.816C551.309 247.328 550.616 247.712 549.848 247.968C549.08 248.203 548.322 248.32 547.576 248.32C546.637 248.32 545.762 248.16 544.952 247.84C544.141 247.52 543.49 247.04 543 246.4C542.53 245.739 542.296 244.928 542.296 243.968C542.296 242.773 542.69 241.792 543.48 241.024C544.29 240.235 545.41 239.701 546.84 239.424L553.176 238.176V240.288L548.024 241.344C546.978 241.557 546.2 241.856 545.688 242.24C545.176 242.624 544.92 243.157 544.92 243.84C544.92 244.501 545.176 245.045 545.688 245.472C546.221 245.877 546.968 246.08 547.928 246.08C548.546 246.08 549.133 246.005 549.688 245.856C550.264 245.685 550.776 245.44 551.224 245.12C551.672 244.779 552.024 244.363 552.28 243.872C552.536 243.36 552.664 242.763 552.664 242.08V237.664ZM564.596 227.456V243.584C564.596 244.373 564.82 244.96 565.268 245.344C565.716 245.728 566.292 245.92 566.996 245.92C567.614 245.92 568.148 245.813 568.596 245.6C569.044 245.387 569.449 245.099 569.812 244.736L570.708 246.88C570.217 247.328 569.63 247.68 568.948 247.936C568.286 248.192 567.518 248.32 566.644 248.32C565.833 248.32 565.076 248.181 564.372 247.904C563.668 247.605 563.102 247.147 562.676 246.528C562.27 245.888 562.057 245.056 562.036 244.032V228.16L564.596 227.456ZM570.42 232V234.208H558.836V232H570.42ZM575.506 228.928C574.93 228.928 574.461 228.757 574.098 228.416C573.757 228.053 573.586 227.584 573.586 227.008C573.586 226.432 573.757 225.973 574.098 225.632C574.461 225.269 574.93 225.088 575.506 225.088C576.082 225.088 576.541 225.269 576.882 225.632C577.245 225.973 577.426 226.432 577.426 227.008C577.426 227.584 577.245 228.053 576.882 228.416C576.541 228.757 576.082 228.928 575.506 228.928ZM576.786 232V248H574.226V232H576.786ZM589.35 231.68C590.865 231.68 592.198 232.011 593.35 232.672C594.523 233.333 595.441 234.293 596.102 235.552C596.763 236.789 597.094 238.272 597.094 240C597.094 241.728 596.763 243.221 596.102 244.48C595.441 245.717 594.523 246.667 593.35 247.328C592.198 247.989 590.865 248.32 589.35 248.32C587.857 248.32 586.523 247.989 585.35 247.328C584.177 246.667 583.259 245.717 582.598 244.48C581.937 243.221 581.606 241.728 581.606 240C581.606 238.272 581.937 236.789 582.598 235.552C583.259 234.293 584.177 233.333 585.35 232.672C586.523 232.011 587.857 231.68 589.35 231.68ZM589.35 233.888C588.262 233.888 587.334 234.133 586.566 234.624C585.798 235.115 585.201 235.819 584.774 236.736C584.369 237.632 584.166 238.72 584.166 240C584.166 241.259 584.369 242.347 584.774 243.264C585.201 244.181 585.798 244.885 586.566 245.376C587.334 245.867 588.262 246.112 589.35 246.112C590.438 246.112 591.366 245.867 592.134 245.376C592.902 244.885 593.489 244.181 593.894 243.264C594.321 242.347 594.534 241.259 594.534 240C594.534 238.72 594.321 237.632 593.894 236.736C593.489 235.819 592.902 235.115 592.134 234.624C591.366 234.133 590.438 233.888 589.35 233.888Z" fill="#F9D763"/>
<path d="M379.641 236.5C380.598 236.5 381.375 237.289 381.375 238.262V247.071C381.375 248.044 380.598 248.833 379.641 248.833H355.167C354.758 248.833 354.366 248.671 354.077 248.382C353.787 248.093 353.625 247.701 353.625 247.292V238.262C353.625 237.289 354.402 236.5 355.359 236.5H379.641Z" stroke="#F9D763" stroke-width="3" stroke-linecap="round" stroke-linejoin="round"/>
<path d="M362.875 236.5V239.583" stroke="#F9D763" stroke-width="3" stroke-linecap="round" stroke-linejoin="round"/>
<path d="M358.25 236.5V241.125" stroke="#F9D763" stroke-width="3" stroke-linecap="round" stroke-linejoin="round"/>
<path d="M367.5 236.5V241.125" stroke="#F9D763" stroke-width="3" stroke-linecap="round" stroke-linejoin="round"/>
<path d="M376.75 236.5V241.125" stroke="#F9D763" stroke-width="3" stroke-linecap="round" stroke-linejoin="round"/>
<path d="M372.125 236.5V239.583" stroke="#F9D763" stroke-width="3" stroke-linecap="round" stroke-linejoin="round"/>
<path d="M353.625 222.625V228.792" stroke="#F9D763" stroke-width="3" stroke-linecap="round" stroke-linejoin="round"/>
<path d="M353.625 225.708H381.375" stroke="#F9D763" stroke-width="3" stroke-linecap="round" stroke-linejoin="round"/>
<path d="M381.375 222.625V228.792" stroke="#F9D763" stroke-width="3" stroke-linecap="round" stroke-linejoin="round"/>
<rect x="465" y="302" width="16" height="16" rx="4" fill="#F9D763"/>
<rect x="372" y="558" width="16" height="16" rx="4" fill="#F9D763"/>
<rect x="276" y="558" width="16" height="16" rx="4" fill="#33B6FF"/>
<rect x="142" y="462" width="16" height="16" rx="4" fill="#33B6FF"/>
<rect x="142" y="318" width="16" height="16" rx="4" fill="#35E7A7"/>
<rect x="297" y="102" width="16" height="16" rx="4" fill="#35E7A7"/>
<path d="M149.598 325.705C149.598 325.705 153.256 281.956 170.501 262.502C209.589 218.406 244.153 216.131 282.501 176.502C308.629 149.5 305.501 149.002 305.501 110.002" stroke="#35E7A7" stroke-width="2" stroke-dasharray="10 10"/>
<path d="M150.873 468.781C150.873 468.781 146.5 486.499 164 506.501C181.499 526.503 244 521.502 267 534.001C290 546.5 284.873 564.781 284.873 564.781" stroke="#33B6FF" stroke-width="3" stroke-dasharray="10 10"/>
<path d="M473.5 309.5C473.5 309.5 474.84 348.106 465.998 380.502C451.42 433.912 397.308 448.414 385.498 502.503C380.249 526.545 379.998 565.003 379.998 565.003" stroke="#F9D763" stroke-width="3" stroke-dasharray="10 10"/>
</svg>
