<svg width="500" height="661" viewBox="0 0 500 661" fill="none" xmlns="http://www.w3.org/2000/svg">
<rect width="500" height="226" rx="10" fill="#181825"/>
<path d="M27.27 44.67H34.17V48H23.07V27.06H27.27V44.67ZM44.2195 48.27C42.6195 48.27 41.1795 47.92 39.8995 47.22C38.6195 46.5 37.6095 45.49 36.8695 44.19C36.1495 42.89 35.7895 41.39 35.7895 39.69C35.7895 37.99 36.1595 36.49 36.8995 35.19C37.6595 33.89 38.6895 32.89 39.9895 32.19C41.2895 31.47 42.7395 31.11 44.3395 31.11C45.9395 31.11 47.3895 31.47 48.6895 32.19C49.9895 32.89 51.0095 33.89 51.7495 35.19C52.5095 36.49 52.8895 37.99 52.8895 39.69C52.8895 41.39 52.4995 42.89 51.7195 44.19C50.9595 45.49 49.9195 46.5 48.5995 47.22C47.2995 47.92 45.8395 48.27 44.2195 48.27ZM44.2195 44.61C44.9795 44.61 45.6895 44.43 46.3495 44.07C47.0295 43.69 47.5695 43.13 47.9695 42.39C48.3695 41.65 48.5695 40.75 48.5695 39.69C48.5695 38.11 48.1495 36.9 47.3095 36.06C46.4895 35.2 45.4795 34.77 44.2795 34.77C43.0795 34.77 42.0695 35.2 41.2495 36.06C40.4495 36.9 40.0495 38.11 40.0495 39.69C40.0495 41.27 40.4395 42.49 41.2195 43.35C42.0195 44.19 43.0195 44.61 44.2195 44.61ZM54.8904 39.63C54.8904 37.95 55.2204 36.46 55.8804 35.16C56.5604 33.86 57.4704 32.86 58.6104 32.16C59.7704 31.46 61.0604 31.11 62.4804 31.11C63.7204 31.11 64.8004 31.36 65.7204 31.86C66.6604 32.36 67.4104 32.99 67.9704 33.75V31.38H72.2004V48H67.9704V45.57C67.4304 46.35 66.6804 47 65.7204 47.52C64.7804 48.02 63.6904 48.27 62.4504 48.27C61.0504 48.27 59.7704 47.91 58.6104 47.19C57.4704 46.47 56.5604 45.46 55.8804 44.16C55.2204 42.84 54.8904 41.33 54.8904 39.63ZM67.9704 39.69C67.9704 38.67 67.7704 37.8 67.3704 37.08C66.9704 36.34 66.4304 35.78 65.7504 35.4C65.0704 35 64.3404 34.8 63.5604 34.8C62.7804 34.8 62.0604 34.99 61.4004 35.37C60.7404 35.75 60.2004 36.31 59.7804 37.05C59.3804 37.77 59.1804 38.63 59.1804 39.63C59.1804 40.63 59.3804 41.51 59.7804 42.27C60.2004 43.01 60.7404 43.58 61.4004 43.98C62.0804 44.38 62.8004 44.58 63.5604 44.58C64.3404 44.58 65.0704 44.39 65.7504 44.01C66.4304 43.61 66.9704 43.05 67.3704 42.33C67.7704 41.59 67.9704 40.71 67.9704 39.69ZM75.2224 39.63C75.2224 37.95 75.5524 36.46 76.2124 35.16C76.8924 33.86 77.8124 32.86 78.9724 32.16C80.1324 31.46 81.4224 31.11 82.8424 31.11C83.9224 31.11 84.9524 31.35 85.9324 31.83C86.9124 32.29 87.6924 32.91 88.2724 33.69V25.8H92.5324V48H88.2724V45.54C87.7524 46.36 87.0224 47.02 86.0824 47.52C85.1424 48.02 84.0524 48.27 82.8124 48.27C81.4124 48.27 80.1324 47.91 78.9724 47.19C77.8124 46.47 76.8924 45.46 76.2124 44.16C75.5524 42.84 75.2224 41.33 75.2224 39.63ZM88.3024 39.69C88.3024 38.67 88.1024 37.8 87.7024 37.08C87.3024 36.34 86.7624 35.78 86.0824 35.4C85.4024 35 84.6724 34.8 83.8924 34.8C83.1124 34.8 82.3924 34.99 81.7324 35.37C81.0724 35.75 80.5324 36.31 80.1124 37.05C79.7124 37.77 79.5124 38.63 79.5124 39.63C79.5124 40.63 79.7124 41.51 80.1124 42.27C80.5324 43.01 81.0724 43.58 81.7324 43.98C82.4124 44.38 83.1324 44.58 83.8924 44.58C84.6724 44.58 85.4024 44.39 86.0824 44.01C86.7624 43.61 87.3024 43.05 87.7024 42.33C88.1024 41.59 88.3024 40.71 88.3024 39.69ZM111.103 27.06C113.303 27.06 115.233 27.49 116.893 28.35C118.573 29.21 119.863 30.44 120.763 32.04C121.683 33.62 122.143 35.46 122.143 37.56C122.143 39.66 121.683 41.5 120.763 43.08C119.863 44.64 118.573 45.85 116.893 46.71C115.233 47.57 113.303 48 111.103 48H103.783V27.06H111.103ZM110.953 44.43C113.153 44.43 114.853 43.83 116.053 42.63C117.253 41.43 117.853 39.74 117.853 37.56C117.853 35.38 117.253 33.68 116.053 32.46C114.853 31.22 113.153 30.6 110.953 30.6H107.983V44.43H110.953ZM132.667 48.27C131.067 48.27 129.627 47.92 128.347 47.22C127.067 46.5 126.057 45.49 125.317 44.19C124.597 42.89 124.237 41.39 124.237 39.69C124.237 37.99 124.607 36.49 125.347 35.19C126.107 33.89 127.137 32.89 128.437 32.19C129.737 31.47 131.187 31.11 132.787 31.11C134.387 31.11 135.837 31.47 137.137 32.19C138.437 32.89 139.457 33.89 140.197 35.19C140.957 36.49 141.337 37.99 141.337 39.69C141.337 41.39 140.947 42.89 140.167 44.19C139.407 45.49 138.367 46.5 137.047 47.22C135.747 47.92 134.287 48.27 132.667 48.27ZM132.667 44.61C133.427 44.61 134.137 44.43 134.797 44.07C135.477 43.69 136.017 43.13 136.417 42.39C136.817 41.65 137.017 40.75 137.017 39.69C137.017 38.11 136.597 36.9 135.757 36.06C134.937 35.2 133.927 34.77 132.727 34.77C131.527 34.77 130.517 35.2 129.697 36.06C128.897 36.9 128.497 38.11 128.497 39.69C128.497 41.27 128.887 42.49 129.667 43.35C130.467 44.19 131.467 44.61 132.667 44.61ZM143.338 39.69C143.338 37.97 143.688 36.47 144.388 35.19C145.088 33.89 146.058 32.89 147.298 32.19C148.538 31.47 149.958 31.11 151.558 31.11C153.618 31.11 155.318 31.63 156.658 32.67C158.018 33.69 158.928 35.13 159.388 36.99H154.858C154.618 36.27 154.208 35.71 153.628 35.31C153.068 34.89 152.368 34.68 151.528 34.68C150.328 34.68 149.378 35.12 148.678 36C147.978 36.86 147.628 38.09 147.628 39.69C147.628 41.27 147.978 42.5 148.678 43.38C149.378 44.24 150.328 44.67 151.528 44.67C153.228 44.67 154.338 43.91 154.858 42.39H159.388C158.928 44.19 158.018 45.62 156.658 46.68C155.298 47.74 153.598 48.27 151.558 48.27C149.958 48.27 148.538 47.92 147.298 47.22C146.058 46.5 145.088 45.5 144.388 44.22C143.688 42.92 143.338 41.41 143.338 39.69ZM178.155 31.38V48H173.925V45.9C173.385 46.62 172.675 47.19 171.795 47.61C170.935 48.01 169.995 48.21 168.975 48.21C167.675 48.21 166.525 47.94 165.525 47.4C164.525 46.84 163.735 46.03 163.155 44.97C162.595 43.89 162.315 42.61 162.315 41.13V31.38H166.515V40.53C166.515 41.85 166.845 42.87 167.505 43.59C168.165 44.29 169.065 44.64 170.205 44.64C171.365 44.64 172.275 44.29 172.935 43.59C173.595 42.87 173.925 41.85 173.925 40.53V31.38H178.155ZM202.939 31.14C204.979 31.14 206.619 31.77 207.859 33.03C209.119 34.27 209.749 36.01 209.749 38.25V48H205.549V38.82C205.549 37.52 205.219 36.53 204.559 35.85C203.899 35.15 202.999 34.8 201.859 34.8C200.719 34.8 199.809 35.15 199.129 35.85C198.469 36.53 198.139 37.52 198.139 38.82V48H193.939V38.82C193.939 37.52 193.609 36.53 192.949 35.85C192.289 35.15 191.389 34.8 190.249 34.8C189.089 34.8 188.169 35.15 187.489 35.85C186.829 36.53 186.499 37.52 186.499 38.82V48H182.299V31.38H186.499V33.39C187.039 32.69 187.729 32.14 188.569 31.74C189.429 31.34 190.369 31.14 191.389 31.14C192.689 31.14 193.849 31.42 194.869 31.98C195.889 32.52 196.679 33.3 197.239 34.32C197.779 33.36 198.559 32.59 199.579 32.01C200.619 31.43 201.739 31.14 202.939 31.14ZM229.184 39.33C229.184 39.93 229.144 40.47 229.064 40.95H216.914C217.014 42.15 217.434 43.09 218.174 43.77C218.914 44.45 219.824 44.79 220.904 44.79C222.464 44.79 223.574 44.12 224.234 42.78H228.764C228.284 44.38 227.364 45.7 226.004 46.74C224.644 47.76 222.974 48.27 220.994 48.27C219.394 48.27 217.954 47.92 216.674 47.22C215.414 46.5 214.424 45.49 213.704 44.19C213.004 42.89 212.654 41.39 212.654 39.69C212.654 37.97 213.004 36.46 213.704 35.16C214.404 33.86 215.384 32.86 216.644 32.16C217.904 31.46 219.354 31.11 220.994 31.11C222.574 31.11 223.984 31.45 225.224 32.13C226.484 32.81 227.454 33.78 228.134 35.04C228.834 36.28 229.184 37.71 229.184 39.33ZM224.834 38.13C224.814 37.05 224.424 36.19 223.664 35.55C222.904 34.89 221.974 34.56 220.874 34.56C219.834 34.56 218.954 34.88 218.234 35.52C217.534 36.14 217.104 37.01 216.944 38.13H224.834ZM241.46 31.14C243.44 31.14 245.04 31.77 246.26 33.03C247.48 34.27 248.09 36.01 248.09 38.25V48H243.89V38.82C243.89 37.5 243.56 36.49 242.9 35.79C242.24 35.07 241.34 34.71 240.2 34.71C239.04 34.71 238.12 35.07 237.44 35.79C236.78 36.49 236.45 37.5 236.45 38.82V48H232.25V31.38H236.45V33.45C237.01 32.73 237.72 32.17 238.58 31.77C239.46 31.35 240.42 31.14 241.46 31.14ZM256.974 34.83V42.87C256.974 43.43 257.104 43.84 257.364 44.1C257.644 44.34 258.104 44.46 258.744 44.46H260.694V48H258.054C254.514 48 252.744 46.28 252.744 42.84V34.83H250.764V31.38H252.744V27.27H256.974V31.38H260.694V34.83H256.974ZM270.075 48.27C268.715 48.27 267.495 48.03 266.415 47.55C265.335 47.05 264.475 46.38 263.835 45.54C263.215 44.7 262.875 43.77 262.815 42.75H267.045C267.125 43.39 267.435 43.92 267.975 44.34C268.535 44.76 269.225 44.97 270.045 44.97C270.845 44.97 271.465 44.81 271.905 44.49C272.365 44.17 272.595 43.76 272.595 43.26C272.595 42.72 272.315 42.32 271.755 42.06C271.215 41.78 270.345 41.48 269.145 41.16C267.905 40.86 266.885 40.55 266.085 40.23C265.305 39.91 264.625 39.42 264.045 38.76C263.485 38.1 263.205 37.21 263.205 36.09C263.205 35.17 263.465 34.33 263.985 33.57C264.525 32.81 265.285 32.21 266.265 31.77C267.265 31.33 268.435 31.11 269.775 31.11C271.755 31.11 273.335 31.61 274.515 32.61C275.695 33.59 276.345 34.92 276.465 36.6H272.445C272.385 35.94 272.105 35.42 271.605 35.04C271.125 34.64 270.475 34.44 269.655 34.44C268.895 34.44 268.305 34.58 267.885 34.86C267.485 35.14 267.285 35.53 267.285 36.03C267.285 36.59 267.565 37.02 268.125 37.32C268.685 37.6 269.555 37.89 270.735 38.19C271.935 38.49 272.925 38.8 273.705 39.12C274.485 39.44 275.155 39.94 275.715 40.62C276.295 41.28 276.595 42.16 276.615 43.26C276.615 44.22 276.345 45.08 275.805 45.84C275.285 46.6 274.525 47.2 273.525 47.64C272.545 48.06 271.395 48.27 270.075 48.27Z" fill="#CDD6F4"/>
<rect x="376.5" y="23.5" width="105" height="29" rx="14.5" fill="#A6E3A1" fill-opacity="0.33"/>
<rect x="376.5" y="23.5" width="105" height="29" rx="14.5" stroke="#A6E3A1"/>
<path d="M394.78 43.16H399.48V45H392.5V31.1H394.78V43.16ZM407.727 45.14C406.433 45.14 405.24 44.84 404.147 44.24C403.067 43.6267 402.207 42.78 401.567 41.7C400.94 40.6067 400.627 39.38 400.627 38.02C400.627 36.66 400.94 35.44 401.567 34.36C402.207 33.28 403.067 32.44 404.147 31.84C405.24 31.2267 406.433 30.92 407.727 30.92C409.033 30.92 410.227 31.2267 411.307 31.84C412.4 32.44 413.26 33.28 413.887 34.36C414.513 35.44 414.827 36.66 414.827 38.02C414.827 39.38 414.513 40.6067 413.887 41.7C413.26 42.78 412.4 43.6267 411.307 44.24C410.227 44.84 409.033 45.14 407.727 45.14ZM407.727 43.16C408.647 43.16 409.467 42.9533 410.187 42.54C410.907 42.1133 411.467 41.5133 411.867 40.74C412.28 39.9533 412.487 39.0467 412.487 38.02C412.487 36.9933 412.28 36.0933 411.867 35.32C411.467 34.5467 410.907 33.9533 410.187 33.54C409.467 33.1267 408.647 32.92 407.727 32.92C406.807 32.92 405.987 33.1267 405.267 33.54C404.547 33.9533 403.98 34.5467 403.567 35.32C403.167 36.0933 402.967 36.9933 402.967 38.02C402.967 39.0467 403.167 39.9533 403.567 40.74C403.98 41.5133 404.547 42.1133 405.267 42.54C405.987 42.9533 406.807 43.16 407.727 43.16ZM425.45 42.16H419.63L418.63 45H416.25L421.23 31.08H423.87L428.85 45H426.45L425.45 42.16ZM424.81 40.3L422.55 33.84L420.27 40.3H424.81ZM435.556 31.1C437.036 31.1 438.329 31.3867 439.436 31.96C440.556 32.52 441.416 33.3333 442.016 34.4C442.629 35.4533 442.936 36.6867 442.936 38.1C442.936 39.5133 442.629 40.74 442.016 41.78C441.416 42.82 440.556 43.62 439.436 44.18C438.329 44.7267 437.036 45 435.556 45H431.016V31.1H435.556ZM435.556 43.14C437.182 43.14 438.429 42.7 439.296 41.82C440.162 40.94 440.596 39.7 440.596 38.1C440.596 36.4867 440.162 35.2267 439.296 34.32C438.429 33.4133 437.182 32.96 435.556 32.96H433.296V43.14H435.556ZM447.475 32.94V37.02H452.275V38.88H447.475V43.14H452.875V45H445.195V31.08H452.875V32.94H447.475ZM462.904 45L459.704 39.44H457.964V45H455.684V31.1H460.484C461.55 31.1 462.45 31.2867 463.184 31.66C463.93 32.0333 464.484 32.5333 464.844 33.16C465.217 33.7867 465.404 34.4867 465.404 35.26C465.404 36.1667 465.137 36.9933 464.604 37.74C464.084 38.4733 463.277 38.9733 462.184 39.24L465.624 45H462.904ZM457.964 37.62H460.484C461.337 37.62 461.977 37.4067 462.404 36.98C462.844 36.5533 463.064 35.98 463.064 35.26C463.064 34.54 462.85 33.98 462.424 33.58C461.997 33.1667 461.35 32.96 460.484 32.96H457.964V37.62Z" fill="#CDD6F4"/>
<path d="M10 3H490C493.866 3 497 6.134 497 10V216C497 219.866 493.866 223 490 223H268V226H490C495.523 226 500 221.523 500 216V10C500 4.47715 495.523 0 490 0H10C4.47715 0 0 4.47716 0 10V216C0 221.523 4.47714 226 9.99999 226H231V223H9.99999C6.134 223 3 219.866 3 216V10C3 6.13401 6.13401 3 10 3Z" fill="#A6E3A1"/>
<circle cx="249.5" cy="224.5" r="11" stroke="#A6E3A1" stroke-width="3"/>
<rect x="58.5" y="106.5" width="382" height="53" rx="8.5" fill="#313244" stroke="#45475A" stroke-width="3"/>
<path d="M81.9359 120.641L85.3205 121V140H82.3205L82.1154 138.397C81.6966 138.996 81.1709 139.479 80.5385 139.846C79.906 140.205 79.1709 140.385 78.3333 140.385C77.188 140.385 76.2393 140.085 75.4872 139.487C74.7436 138.889 74.188 138.051 73.8205 136.974C73.4615 135.889 73.2821 134.628 73.2821 133.192C73.2821 131.808 73.4957 130.577 73.9231 129.5C74.3504 128.423 74.9658 127.577 75.7692 126.962C76.5812 126.346 77.5427 126.038 78.6538 126.038C79.3205 126.038 79.9274 126.154 80.4744 126.385C81.0214 126.615 81.5085 126.957 81.9359 127.41V120.641ZM79.5641 128.564C78.7094 128.564 78.0342 128.936 77.5385 129.679C77.0513 130.415 76.8077 131.59 76.8077 133.205C76.8077 134.342 76.9103 135.252 77.1154 135.936C77.3205 136.611 77.6111 137.098 77.9872 137.397C78.3632 137.697 78.8077 137.846 79.3205 137.846C79.8846 137.846 80.3803 137.679 80.8077 137.346C81.2436 137.004 81.6197 136.581 81.9359 136.077V129.897C81.6197 129.479 81.265 129.154 80.8718 128.923C80.4872 128.684 80.0513 128.564 79.5641 128.564ZM100.278 136.423C100.278 136.944 100.355 137.325 100.509 137.564C100.663 137.795 100.911 137.97 101.253 138.09L100.522 140.359C99.7954 140.282 99.1757 140.103 98.6629 139.821C98.1586 139.53 97.7697 139.098 97.4962 138.526C96.9834 139.15 96.3339 139.615 95.5475 139.923C94.7697 140.231 93.9535 140.385 93.0988 140.385C91.7142 140.385 90.6159 139.991 89.8039 139.205C88.992 138.419 88.586 137.397 88.586 136.141C88.586 134.697 89.1501 133.585 90.2783 132.808C91.415 132.021 93.0219 131.628 95.0988 131.628H96.9962V130.897C96.9962 130.094 96.7484 129.513 96.2527 129.154C95.7569 128.786 95.0433 128.603 94.1116 128.603C93.6757 128.603 93.1287 128.662 92.4706 128.782C91.821 128.893 91.1501 129.068 90.4578 129.308L89.6501 126.987C90.5133 126.662 91.3809 126.423 92.2527 126.269C93.133 126.115 93.9321 126.038 94.6501 126.038C96.5561 126.038 97.9706 126.444 98.8937 127.256C99.8168 128.06 100.278 129.201 100.278 130.679V136.423ZM94.2014 137.936C94.7142 137.936 95.2313 137.791 95.7527 137.5C96.2826 137.209 96.6971 136.803 96.9962 136.282V133.641H95.6629C94.4065 133.641 93.4962 133.842 92.9321 134.244C92.3766 134.645 92.0988 135.214 92.0988 135.949C92.0988 136.581 92.2783 137.073 92.6373 137.423C92.9962 137.765 93.5176 137.936 94.2014 137.936ZM116.544 139.244C116.039 139.577 115.428 139.85 114.71 140.064C113.992 140.278 113.215 140.385 112.377 140.385C110.719 140.385 109.471 139.957 108.634 139.103C107.796 138.239 107.377 137.094 107.377 135.667V128.821H104.428V126.423H107.377V123.436L110.762 123.026V126.423H115.249L114.903 128.821H110.762V135.654C110.762 136.355 110.933 136.868 111.275 137.192C111.616 137.517 112.168 137.679 112.928 137.679C113.416 137.679 113.86 137.624 114.262 137.513C114.672 137.393 115.044 137.244 115.377 137.064L116.544 139.244ZM131.04 136.423C131.04 136.944 131.117 137.325 131.271 137.564C131.425 137.795 131.672 137.97 132.014 138.09L131.284 140.359C130.557 140.282 129.937 140.103 129.425 139.821C128.92 139.53 128.531 139.098 128.258 138.526C127.745 139.15 127.096 139.615 126.309 139.923C125.531 140.231 124.715 140.385 123.861 140.385C122.476 140.385 121.378 139.991 120.566 139.205C119.754 138.419 119.348 137.397 119.348 136.141C119.348 134.697 119.912 133.585 121.04 132.808C122.177 132.021 123.784 131.628 125.861 131.628H127.758V130.897C127.758 130.094 127.51 129.513 127.014 129.154C126.519 128.786 125.805 128.603 124.873 128.603C124.437 128.603 123.89 128.662 123.232 128.782C122.583 128.893 121.912 129.068 121.22 129.308L120.412 126.987C121.275 126.662 122.143 126.423 123.014 126.269C123.895 126.115 124.694 126.038 125.412 126.038C127.318 126.038 128.732 126.444 129.655 127.256C130.578 128.06 131.04 129.201 131.04 130.679V136.423ZM124.963 137.936C125.476 137.936 125.993 137.791 126.514 137.5C127.044 137.209 127.459 136.803 127.758 136.282V133.641H126.425C125.168 133.641 124.258 133.842 123.694 134.244C123.138 134.645 122.861 135.214 122.861 135.949C122.861 136.581 123.04 137.073 123.399 137.423C123.758 137.765 124.279 137.936 124.963 137.936ZM137.139 142.795L134.472 141.577L145.318 119.115L147.959 120.359L137.139 142.795ZM151.097 140V137.654H153.007V128.756H151.097V126.423H155.584L156.212 129.538C156.708 128.385 157.332 127.517 158.084 126.936C158.836 126.346 159.78 126.051 160.917 126.051C161.353 126.051 161.738 126.085 162.071 126.154C162.413 126.222 162.738 126.312 163.045 126.423L162.033 129.269C161.768 129.201 161.515 129.15 161.276 129.115C161.037 129.073 160.768 129.051 160.468 129.051C159.528 129.051 158.708 129.419 158.007 130.154C157.315 130.88 156.776 131.868 156.391 133.115V137.654H159.097V140H151.097ZM160.186 131.718V128.115L160.648 126.423H163.045L162.443 131.718H160.186ZM171.99 126.038C173.341 126.038 174.486 126.333 175.426 126.923C176.366 127.513 177.08 128.346 177.567 129.423C178.063 130.491 178.311 131.744 178.311 133.179C178.311 134.65 178.063 135.923 177.567 137C177.071 138.077 176.354 138.91 175.413 139.5C174.473 140.09 173.328 140.385 171.977 140.385C170.636 140.385 169.49 140.098 168.542 139.526C167.601 138.944 166.883 138.12 166.388 137.051C165.892 135.974 165.644 134.692 165.644 133.205C165.644 131.786 165.892 130.538 166.388 129.462C166.883 128.385 167.606 127.547 168.554 126.949C169.503 126.342 170.648 126.038 171.99 126.038ZM171.99 128.59C171.042 128.59 170.332 128.962 169.862 129.705C169.401 130.449 169.17 131.615 169.17 133.205C169.17 134.812 169.401 135.987 169.862 136.731C170.324 137.466 171.029 137.833 171.977 137.833C172.926 137.833 173.631 137.466 174.093 136.731C174.554 135.987 174.785 134.803 174.785 133.179C174.785 131.598 174.554 130.44 174.093 129.705C173.631 128.962 172.93 128.59 171.99 128.59ZM191.384 126.038C191.965 126.038 192.461 126.162 192.871 126.41C193.281 126.65 193.598 127.056 193.82 127.628C194.042 128.192 194.153 128.962 194.153 129.936V140H191.204V130.359C191.204 129.744 191.153 129.308 191.051 129.051C190.957 128.795 190.739 128.667 190.397 128.667C190.115 128.667 189.828 128.752 189.538 128.923C189.256 129.085 188.961 129.38 188.653 129.808V140H186.102V130.359C186.102 129.744 186.051 129.308 185.948 129.051C185.854 128.795 185.636 128.667 185.294 128.667C185.004 128.667 184.717 128.752 184.435 128.923C184.153 129.085 183.858 129.38 183.551 129.808V140H180.563V126.423H183.089L183.307 127.833C183.709 127.269 184.132 126.829 184.576 126.513C185.021 126.197 185.555 126.038 186.179 126.038C186.692 126.038 187.145 126.167 187.538 126.423C187.94 126.671 188.226 127.098 188.397 127.705C188.79 127.209 189.23 126.808 189.717 126.5C190.204 126.192 190.76 126.038 191.384 126.038ZM207.944 136.423C207.944 136.944 208.021 137.325 208.175 137.564C208.329 137.795 208.577 137.97 208.919 138.09L208.188 140.359C207.461 140.282 206.842 140.103 206.329 139.821C205.825 139.53 205.436 139.098 205.162 138.526C204.649 139.15 204 139.615 203.214 139.923C202.436 140.231 201.62 140.385 200.765 140.385C199.38 140.385 198.282 139.991 197.47 139.205C196.658 138.419 196.252 137.397 196.252 136.141C196.252 134.697 196.816 133.585 197.944 132.808C199.081 132.021 200.688 131.628 202.765 131.628H204.662V130.897C204.662 130.094 204.414 129.513 203.919 129.154C203.423 128.786 202.709 128.603 201.778 128.603C201.342 128.603 200.795 128.662 200.137 128.782C199.487 128.893 198.816 129.068 198.124 129.308L197.316 126.987C198.179 126.662 199.047 126.423 199.919 126.269C200.799 126.115 201.598 126.038 202.316 126.038C204.222 126.038 205.637 126.444 206.56 127.256C207.483 128.06 207.944 129.201 207.944 130.679V136.423ZM201.867 137.936C202.38 137.936 202.897 137.791 203.419 137.5C203.949 137.209 204.363 136.803 204.662 136.282V133.641H203.329C202.073 133.641 201.162 133.842 200.598 134.244C200.043 134.645 199.765 135.214 199.765 135.949C199.765 136.581 199.944 137.073 200.303 137.423C200.662 137.765 201.184 137.936 201.867 137.936ZM212.492 140V126.423H215.441L215.684 128.103C216.265 127.419 216.919 126.906 217.646 126.564C218.372 126.214 219.154 126.038 219.992 126.038C221.214 126.038 222.146 126.393 222.787 127.103C223.428 127.803 223.748 128.791 223.748 130.064V140H220.364V131.385C220.364 130.701 220.321 130.154 220.235 129.744C220.15 129.325 219.988 129.026 219.748 128.846C219.509 128.658 219.163 128.564 218.71 128.564C218.342 128.564 217.988 128.645 217.646 128.808C217.312 128.97 216.996 129.188 216.697 129.462C216.406 129.735 216.133 130.038 215.876 130.372V140H212.492ZM227.091 144.731V142H239.911V144.731H227.091ZM254.087 136.423C254.087 136.944 254.164 137.325 254.318 137.564C254.472 137.795 254.719 137.97 255.061 138.09L254.33 140.359C253.604 140.282 252.984 140.103 252.472 139.821C251.967 139.53 251.578 139.098 251.305 138.526C250.792 139.15 250.142 139.615 249.356 139.923C248.578 140.231 247.762 140.385 246.907 140.385C245.523 140.385 244.424 139.991 243.613 139.205C242.801 138.419 242.395 137.397 242.395 136.141C242.395 134.697 242.959 133.585 244.087 132.808C245.224 132.021 246.83 131.628 248.907 131.628H250.805V130.897C250.805 130.094 250.557 129.513 250.061 129.154C249.566 128.786 248.852 128.603 247.92 128.603C247.484 128.603 246.937 128.662 246.279 128.782C245.63 128.893 244.959 129.068 244.266 129.308L243.459 126.987C244.322 126.662 245.189 126.423 246.061 126.269C246.942 126.115 247.741 126.038 248.459 126.038C250.365 126.038 251.779 126.444 252.702 127.256C253.625 128.06 254.087 129.201 254.087 130.679V136.423ZM248.01 137.936C248.523 137.936 249.04 137.791 249.561 137.5C250.091 137.209 250.506 136.803 250.805 136.282V133.641H249.472C248.215 133.641 247.305 133.842 246.741 134.244C246.185 134.645 245.907 135.214 245.907 135.949C245.907 136.581 246.087 137.073 246.446 137.423C246.805 137.765 247.326 137.936 248.01 137.936ZM258.763 140V137.654H260.673V128.756H258.763V126.423H263.25L263.878 129.538C264.374 128.385 264.998 127.517 265.75 126.936C266.502 126.346 267.446 126.051 268.583 126.051C269.019 126.051 269.404 126.085 269.737 126.154C270.079 126.222 270.404 126.312 270.711 126.423L269.699 129.269C269.434 129.201 269.181 129.15 268.942 129.115C268.703 129.073 268.434 129.051 268.134 129.051C267.194 129.051 266.374 129.419 265.673 130.154C264.981 130.88 264.442 131.868 264.057 133.115V137.654H266.763V140H258.763ZM267.852 131.718V128.115L268.314 126.423H270.711L270.109 131.718H267.852ZM280.849 137.667C281.447 137.667 282.007 137.556 282.528 137.333C283.058 137.111 283.567 136.829 284.054 136.487L285.592 138.654C284.994 139.158 284.272 139.573 283.426 139.897C282.579 140.222 281.673 140.385 280.708 140.385C279.289 140.385 278.071 140.09 277.054 139.5C276.045 138.902 275.267 138.073 274.72 137.013C274.182 135.944 273.913 134.705 273.913 133.295C273.913 131.902 274.186 130.658 274.733 129.564C275.289 128.462 276.075 127.598 277.092 126.974C278.118 126.35 279.34 126.038 280.759 126.038C281.733 126.038 282.614 126.179 283.4 126.462C284.195 126.735 284.921 127.145 285.579 127.692L284.079 129.769C283.575 129.419 283.054 129.154 282.515 128.974C281.985 128.786 281.434 128.692 280.861 128.692C279.861 128.692 279.045 129.056 278.413 129.782C277.789 130.5 277.477 131.671 277.477 133.295C277.477 134.363 277.622 135.218 277.913 135.859C278.212 136.5 278.614 136.962 279.118 137.244C279.631 137.526 280.208 137.667 280.849 137.667ZM292.781 120.679V127.949C293.345 127.308 293.977 126.829 294.678 126.513C295.388 126.197 296.127 126.038 296.896 126.038C298.144 126.038 299.08 126.393 299.704 127.103C300.336 127.803 300.653 128.791 300.653 130.064V140H297.268V130.821C297.268 130 297.14 129.419 296.883 129.077C296.635 128.735 296.208 128.564 295.601 128.564C295.242 128.564 294.892 128.65 294.55 128.821C294.217 128.983 293.9 129.205 293.601 129.487C293.311 129.769 293.037 130.085 292.781 130.436V140H289.396V121.013L292.781 120.679ZM312.585 126.423V137.603H316.162V140H305.226V137.603H309.2V128.821H305.354V126.423H312.585ZM310.392 119.577C311.016 119.577 311.521 119.769 311.905 120.154C312.298 120.538 312.495 121.017 312.495 121.59C312.495 122.162 312.298 122.645 311.905 123.038C311.521 123.423 311.016 123.615 310.392 123.615C309.768 123.615 309.26 123.423 308.867 123.038C308.474 122.645 308.277 122.162 308.277 121.59C308.277 121.017 308.474 120.538 308.867 120.154C309.26 119.769 309.768 119.577 310.392 119.577ZM332.453 126.423L327.786 140H323.812L319.119 126.423H322.76L325.85 137.295L329.004 126.423H332.453ZM338.423 134.244C338.492 135.09 338.684 135.778 339 136.308C339.325 136.838 339.74 137.226 340.244 137.474C340.748 137.722 341.308 137.846 341.923 137.846C342.573 137.846 343.184 137.744 343.757 137.538C344.329 137.333 344.893 137.047 345.449 136.679L346.859 138.615C346.227 139.145 345.47 139.573 344.59 139.897C343.718 140.222 342.757 140.385 341.705 140.385C340.235 140.385 338.996 140.081 337.987 139.474C336.987 138.868 336.231 138.026 335.718 136.949C335.205 135.872 334.949 134.632 334.949 133.231C334.949 131.88 335.201 130.662 335.705 129.577C336.21 128.491 336.936 127.632 337.885 127C338.834 126.359 339.979 126.038 341.321 126.038C342.569 126.038 343.646 126.312 344.552 126.859C345.458 127.406 346.158 128.192 346.654 129.218C347.15 130.235 347.398 131.462 347.398 132.897C347.398 133.128 347.389 133.363 347.372 133.603C347.363 133.842 347.351 134.056 347.334 134.244H338.423ZM341.334 128.423C340.513 128.423 339.838 128.718 339.308 129.308C338.787 129.889 338.479 130.812 338.385 132.077H344.103C344.086 130.932 343.846 130.038 343.385 129.397C342.932 128.748 342.248 128.423 341.334 128.423ZM356.086 137.885C356.881 137.885 357.518 137.748 357.996 137.474C358.484 137.192 358.727 136.799 358.727 136.295C358.727 135.962 358.646 135.679 358.484 135.449C358.33 135.218 358.022 135.004 357.561 134.808C357.099 134.603 356.407 134.376 355.484 134.128C354.612 133.906 353.847 133.632 353.189 133.308C352.539 132.974 352.031 132.547 351.663 132.026C351.304 131.504 351.125 130.846 351.125 130.051C351.125 129.256 351.347 128.56 351.791 127.962C352.236 127.355 352.877 126.885 353.714 126.551C354.561 126.209 355.578 126.038 356.766 126.038C357.928 126.038 358.945 126.192 359.817 126.5C360.689 126.799 361.437 127.175 362.061 127.628L360.676 129.692C360.129 129.342 359.535 129.06 358.894 128.846C358.261 128.624 357.578 128.513 356.843 128.513C356.048 128.513 355.467 128.628 355.099 128.859C354.74 129.09 354.561 129.41 354.561 129.821C354.561 130.111 354.65 130.359 354.83 130.564C355.018 130.761 355.351 130.953 355.83 131.141C356.317 131.321 357.009 131.538 357.907 131.795C358.787 132.034 359.552 132.316 360.202 132.641C360.86 132.966 361.368 133.397 361.727 133.936C362.086 134.474 362.266 135.179 362.266 136.051C362.266 137.034 361.979 137.846 361.407 138.487C360.834 139.128 360.078 139.607 359.138 139.923C358.206 140.231 357.193 140.385 356.099 140.385C354.817 140.385 353.697 140.201 352.74 139.833C351.783 139.466 350.971 138.991 350.304 138.41L352.061 136.436C352.591 136.855 353.193 137.201 353.868 137.474C354.552 137.748 355.291 137.885 356.086 137.885ZM369.275 137.731C369.275 137.252 369.39 136.812 369.621 136.41C369.86 136.009 370.181 135.688 370.582 135.449C370.984 135.209 371.429 135.09 371.916 135.09C372.412 135.09 372.86 135.209 373.262 135.449C373.664 135.688 373.98 136.009 374.211 136.41C374.45 136.812 374.57 137.252 374.57 137.731C374.57 138.209 374.45 138.654 374.211 139.064C373.98 139.466 373.664 139.786 373.262 140.026C372.86 140.265 372.412 140.385 371.916 140.385C371.429 140.385 370.984 140.265 370.582 140.026C370.181 139.786 369.86 139.466 369.621 139.064C369.39 138.654 369.275 138.209 369.275 137.731ZM388.515 137.667C389.113 137.667 389.673 137.556 390.194 137.333C390.724 137.111 391.233 136.829 391.72 136.487L393.258 138.654C392.66 139.158 391.938 139.573 391.092 139.897C390.245 140.222 389.339 140.385 388.374 140.385C386.955 140.385 385.737 140.09 384.72 139.5C383.711 138.902 382.933 138.073 382.386 137.013C381.848 135.944 381.579 134.705 381.579 133.295C381.579 131.902 381.852 130.658 382.399 129.564C382.955 128.462 383.741 127.598 384.758 126.974C385.784 126.35 387.006 126.038 388.425 126.038C389.399 126.038 390.28 126.179 391.066 126.462C391.861 126.735 392.587 127.145 393.245 127.692L391.745 129.769C391.241 129.419 390.72 129.154 390.181 128.974C389.651 128.786 389.1 128.692 388.527 128.692C387.527 128.692 386.711 129.056 386.079 129.782C385.455 130.5 385.143 131.671 385.143 133.295C385.143 134.363 385.288 135.218 385.579 135.859C385.878 136.5 386.28 136.962 386.784 137.244C387.297 137.526 387.874 137.667 388.515 137.667ZM402.229 137.885C403.024 137.885 403.66 137.748 404.139 137.474C404.626 137.192 404.87 136.799 404.87 136.295C404.87 135.962 404.789 135.679 404.626 135.449C404.472 135.218 404.165 135.004 403.703 134.808C403.242 134.603 402.549 134.376 401.626 134.128C400.754 133.906 399.989 133.632 399.331 133.308C398.682 132.974 398.173 132.547 397.806 132.026C397.447 131.504 397.267 130.846 397.267 130.051C397.267 129.256 397.489 128.56 397.934 127.962C398.378 127.355 399.019 126.885 399.857 126.551C400.703 126.209 401.72 126.038 402.908 126.038C404.071 126.038 405.088 126.192 405.96 126.5C406.831 126.799 407.579 127.175 408.203 127.628L406.819 129.692C406.272 129.342 405.678 129.06 405.037 128.846C404.404 128.624 403.72 128.513 402.985 128.513C402.19 128.513 401.609 128.628 401.242 128.859C400.883 129.09 400.703 129.41 400.703 129.821C400.703 130.111 400.793 130.359 400.972 130.564C401.16 130.761 401.494 130.953 401.972 131.141C402.46 131.321 403.152 131.538 404.049 131.795C404.93 132.034 405.695 132.316 406.344 132.641C407.002 132.966 407.511 133.397 407.87 133.936C408.229 134.474 408.408 135.179 408.408 136.051C408.408 137.034 408.122 137.846 407.549 138.487C406.977 139.128 406.22 139.607 405.28 139.923C404.348 140.231 403.336 140.385 402.242 140.385C400.96 140.385 399.84 140.201 398.883 139.833C397.925 139.466 397.113 138.991 396.447 138.41L398.203 136.436C398.733 136.855 399.336 137.201 400.011 137.474C400.695 137.748 401.434 137.885 402.229 137.885ZM424.738 126.423L420.071 140H416.097L411.405 126.423H415.046L418.135 137.295L421.289 126.423H424.738Z" fill="#CDD6F4"/>
<rect y="435" width="500" height="226" rx="10" fill="#181825"/>
<path d="M377.501 574.081C375.279 573.632 373.127 575.091 372.684 577.347L370.283 589.58C369.84 591.835 371.278 594.021 373.499 594.47C375.721 594.919 377.874 593.46 378.317 591.205L379.917 583.049L387.951 584.674C390.173 585.123 392.326 583.664 392.768 581.409C393.211 579.153 391.774 576.968 389.552 576.519L377.501 574.081Z" fill="#F38BA8"/>
<path d="M413.653 581.393C411.431 580.944 409.278 582.403 408.836 584.659C408.393 586.914 409.83 589.099 412.052 589.549L420.086 591.174L418.485 599.329C418.043 601.585 419.48 603.77 421.702 604.219C423.924 604.669 426.076 603.21 426.519 600.954L428.92 588.721C429.363 586.465 427.925 584.28 425.703 583.831L413.653 581.393Z" fill="#89B4FA"/>
<path d="M373.515 615.671C373.957 613.416 372.52 611.23 370.298 610.781C368.076 610.332 365.924 611.791 365.481 614.046L363.08 626.28C362.637 628.535 364.075 630.72 366.297 631.17L378.347 633.607C380.569 634.056 382.722 632.597 383.164 630.342C383.607 628.086 382.17 625.901 379.948 625.452L371.914 623.827L373.515 615.671Z" fill="#89B4FA"/>
<path d="M421.717 625.42C422.16 623.165 420.722 620.979 418.501 620.53C416.279 620.081 414.126 621.54 413.683 623.795L412.083 631.951L404.049 630.326C401.827 629.877 399.675 631.336 399.232 633.591C398.789 635.847 400.227 638.032 402.448 638.481L414.499 640.919C416.721 641.368 418.874 639.909 419.316 637.653L421.717 625.42Z" fill="#F38BA8"/>
<path d="M402.105 600.228C401.61 602.75 399.194 604.387 396.71 603.885C394.225 603.382 392.612 600.93 393.107 598.408C393.602 595.885 396.018 594.248 398.502 594.751C400.987 595.253 402.6 597.705 402.105 600.228Z" fill="#F9E2AF"/>
<path d="M390.832 614.962C390.337 617.485 387.922 619.122 385.437 618.619C382.953 618.117 381.34 615.665 381.835 613.142C382.33 610.62 384.745 608.983 387.23 609.485C389.715 609.988 391.328 612.44 390.832 614.962Z" fill="#F9E2AF"/>
<path d="M397.956 616.403C397.461 618.925 399.073 621.378 401.558 621.88C404.043 622.383 406.458 620.745 406.953 618.223C407.448 615.701 405.836 613.248 403.351 612.746C400.866 612.243 398.451 613.881 397.956 616.403Z" fill="#F9E2AF"/>
<path d="M18.7137 540.555C15.1515 542.609 13.9425 547.156 16.0085 550.729L27.2135 570.112C29.2795 573.685 33.8266 574.913 37.3888 572.859C40.9511 570.805 42.16 566.258 40.0941 562.685L32.624 549.763L45.5045 542.336C49.0667 540.282 50.2757 535.736 48.2098 532.162C46.1438 528.589 41.5967 527.361 38.0345 529.415L18.7137 540.555Z" fill="#F38BA8"/>
<path d="M76.676 507.135C73.1138 509.189 71.9049 513.736 73.9708 517.309C76.0368 520.883 80.5838 522.111 84.146 520.057L97.0265 512.63L104.497 525.551C106.562 529.125 111.11 530.353 114.672 528.299C118.234 526.245 119.443 521.698 117.377 518.125L106.172 498.742C104.106 495.169 99.5591 493.941 95.9968 495.995L76.676 507.135Z" fill="#89B4FA"/>
<path d="M62.5041 601.449C60.4382 597.875 55.891 596.647 52.3287 598.701C48.7665 600.755 47.5576 605.302 49.6235 608.875L60.8286 628.258C62.8945 631.831 67.4416 633.059 71.0038 631.005L90.3246 619.865C93.8868 617.811 95.0958 613.264 93.0298 609.691C90.9639 606.117 86.4169 604.889 82.8546 606.943L69.9741 614.37L62.5041 601.449Z" fill="#89B4FA"/>
<path d="M139.786 556.888C137.721 553.315 133.173 552.087 129.611 554.141C126.049 556.195 124.84 560.742 126.906 564.315L134.376 577.237L121.495 584.664C117.933 586.718 116.724 591.264 118.79 594.838C120.856 598.411 125.403 599.639 128.965 597.585L148.286 586.445C151.849 584.391 153.057 579.844 150.991 576.271L139.786 556.888Z" fill="#F38BA8"/>
<path d="M83.2186 546.377C85.5289 550.373 84.1724 555.475 80.1887 557.772C76.205 560.069 71.1027 558.691 68.7924 554.695C66.4821 550.699 67.8386 545.597 71.8223 543.3C75.806 541.003 80.9083 542.381 83.2186 546.377Z" fill="#F9E2AF"/>
<path d="M85.285 579.757C87.5953 583.753 86.2388 588.855 82.2551 591.152C78.2714 593.449 73.1691 592.071 70.8588 588.075C68.5485 584.079 69.905 578.977 73.8887 576.68C77.8723 574.383 82.9746 575.761 85.285 579.757Z" fill="#F9E2AF"/>
<path d="M96.7052 573.172C99.0155 577.169 104.118 578.546 108.101 576.249C112.085 573.952 113.442 568.851 111.131 564.854C108.821 560.858 103.719 559.48 99.7351 561.777C95.7514 564.074 94.3949 569.176 96.7052 573.172Z" fill="#F9E2AF"/>
<path d="M282.868 468.271C281.113 468.468 279.856 470.051 280.056 471.812L281.138 481.368C281.337 483.13 282.917 484.395 284.672 484.198C286.427 484.001 287.684 482.419 287.485 480.657L286.763 474.286L293.11 473.575C294.866 473.378 296.123 471.796 295.923 470.034C295.724 468.272 294.144 467.008 292.389 467.204L282.868 468.271Z" fill="#F38BA8"/>
<path d="M311.43 465.07C309.674 465.267 308.418 466.849 308.617 468.611C308.817 470.373 310.396 471.638 312.151 471.441L318.498 470.729L319.22 477.1C319.419 478.862 320.998 480.126 322.754 479.93C324.509 479.733 325.766 478.15 325.567 476.389L324.485 466.833C324.285 465.071 322.706 463.806 320.95 464.003L311.43 465.07Z" fill="#89B4FA"/>
<path d="M289.649 499.768C289.449 498.006 287.87 496.742 286.115 496.939C284.359 497.135 283.102 498.718 283.302 500.48L284.384 510.036C284.584 511.797 286.163 513.062 287.918 512.865L297.439 511.798C299.194 511.601 300.451 510.019 300.252 508.257C300.052 506.495 298.473 505.231 296.717 505.427L290.37 506.139L289.649 499.768Z" fill="#89B4FA"/>
<path d="M327.731 495.5C327.531 493.738 325.952 492.474 324.196 492.67C322.441 492.867 321.184 494.449 321.384 496.211L322.105 502.582L315.758 503.293C314.003 503.49 312.746 505.072 312.945 506.834C313.145 508.596 314.724 509.861 316.479 509.664L326 508.597C327.755 508.4 329.012 506.818 328.813 505.056L327.731 495.5Z" fill="#F38BA8"/>
<path d="M307.265 481.644C307.488 483.614 306.077 485.39 304.114 485.61C302.151 485.83 300.379 484.411 300.156 482.441C299.933 480.471 301.343 478.695 303.306 478.475C305.269 478.255 307.042 479.674 307.265 481.644Z" fill="#F9E2AF"/>
<path d="M302.344 495.141C302.567 497.112 301.157 498.887 299.194 499.107C297.231 499.327 295.459 497.908 295.236 495.938C295.013 493.968 296.423 492.192 298.386 491.972C300.349 491.752 302.121 493.171 302.344 495.141Z" fill="#F9E2AF"/>
<path d="M307.972 494.511C308.195 496.481 309.967 497.9 311.93 497.68C313.893 497.46 315.304 495.684 315.08 493.714C314.857 491.743 313.085 490.325 311.122 490.545C309.159 490.765 307.749 492.54 307.972 494.511Z" fill="#F9E2AF"/>
<path d="M22.05 472.5C22.05 470.44 22.51 468.6 23.43 466.98C24.37 465.34 25.64 464.07 27.24 463.17C28.86 462.25 30.67 461.79 32.67 461.79C35.01 461.79 37.06 462.39 38.82 463.59C40.58 464.79 41.81 466.45 42.51 468.57H37.68C37.2 467.57 36.52 466.82 35.64 466.32C34.78 465.82 33.78 465.57 32.64 465.57C31.42 465.57 30.33 465.86 29.37 466.44C28.43 467 27.69 467.8 27.15 468.84C26.63 469.88 26.37 471.1 26.37 472.5C26.37 473.88 26.63 475.1 27.15 476.16C27.69 477.2 28.43 478.01 29.37 478.59C30.33 479.15 31.42 479.43 32.64 479.43C33.78 479.43 34.78 479.18 35.64 478.68C36.52 478.16 37.2 477.4 37.68 476.4H42.51C41.81 478.54 40.58 480.21 38.82 481.41C37.08 482.59 35.03 483.18 32.67 483.18C30.67 483.18 28.86 482.73 27.24 481.83C25.64 480.91 24.37 479.64 23.43 478.02C22.51 476.4 22.05 474.56 22.05 472.5ZM50.2973 460.8V483H46.0973V460.8H50.2973ZM70.137 466.38V483H65.907V480.9C65.367 481.62 64.657 482.19 63.777 482.61C62.917 483.01 61.977 483.21 60.957 483.21C59.657 483.21 58.507 482.94 57.507 482.4C56.507 481.84 55.717 481.03 55.137 479.97C54.577 478.89 54.297 477.61 54.297 476.13V466.38H58.497V475.53C58.497 476.85 58.827 477.87 59.487 478.59C60.147 479.29 61.047 479.64 62.187 479.64C63.347 479.64 64.257 479.29 64.917 478.59C65.577 477.87 65.907 476.85 65.907 475.53V466.38H70.137ZM80.6409 483.27C79.2809 483.27 78.0609 483.03 76.9809 482.55C75.9009 482.05 75.0409 481.38 74.4009 480.54C73.7809 479.7 73.4409 478.77 73.3809 477.75H77.6109C77.6909 478.39 78.0009 478.92 78.5409 479.34C79.1009 479.76 79.7909 479.97 80.6109 479.97C81.4109 479.97 82.0309 479.81 82.4709 479.49C82.9309 479.17 83.1609 478.76 83.1609 478.26C83.1609 477.72 82.8809 477.32 82.3209 477.06C81.7809 476.78 80.9109 476.48 79.7109 476.16C78.4709 475.86 77.4509 475.55 76.6509 475.23C75.8709 474.91 75.1909 474.42 74.6109 473.76C74.0509 473.1 73.7709 472.21 73.7709 471.09C73.7709 470.17 74.0309 469.33 74.5509 468.57C75.0909 467.81 75.8509 467.21 76.8309 466.77C77.8309 466.33 79.0009 466.11 80.3409 466.11C82.3209 466.11 83.9009 466.61 85.0809 467.61C86.2609 468.59 86.9109 469.92 87.0309 471.6H83.0109C82.9509 470.94 82.6709 470.42 82.1709 470.04C81.6909 469.64 81.0409 469.44 80.2209 469.44C79.4609 469.44 78.8709 469.58 78.4509 469.86C78.0509 470.14 77.8509 470.53 77.8509 471.03C77.8509 471.59 78.1309 472.02 78.6909 472.32C79.2509 472.6 80.1209 472.89 81.3009 473.19C82.5009 473.49 83.4909 473.8 84.2709 474.12C85.0509 474.44 85.7209 474.94 86.2809 475.62C86.8609 476.28 87.1609 477.16 87.1809 478.26C87.1809 479.22 86.9109 480.08 86.3709 480.84C85.8509 481.6 85.0909 482.2 84.0909 482.64C83.1109 483.06 81.9609 483.27 80.6409 483.27ZM97.5586 479.13L101.759 466.38H106.229L100.079 483H94.9786L88.8586 466.38H93.3586L97.5586 479.13ZM110.718 464.4C109.978 464.4 109.358 464.17 108.858 463.71C108.378 463.23 108.138 462.64 108.138 461.94C108.138 461.24 108.378 460.66 108.858 460.2C109.358 459.72 109.978 459.48 110.718 459.48C111.458 459.48 112.068 459.72 112.548 460.2C113.048 460.66 113.298 461.24 113.298 461.94C113.298 462.64 113.048 463.23 112.548 463.71C112.068 464.17 111.458 464.4 110.718 464.4ZM112.788 466.38V483H108.588V466.38H112.788ZM132.387 474.33C132.387 474.93 132.347 475.47 132.267 475.95H120.117C120.217 477.15 120.637 478.09 121.377 478.77C122.117 479.45 123.027 479.79 124.107 479.79C125.667 479.79 126.777 479.12 127.437 477.78H131.967C131.487 479.38 130.567 480.7 129.207 481.74C127.847 482.76 126.177 483.27 124.197 483.27C122.597 483.27 121.157 482.92 119.877 482.22C118.617 481.5 117.627 480.49 116.907 479.19C116.207 477.89 115.857 476.39 115.857 474.69C115.857 472.97 116.207 471.46 116.907 470.16C117.607 468.86 118.587 467.86 119.847 467.16C121.107 466.46 122.557 466.11 124.197 466.11C125.777 466.11 127.187 466.45 128.427 467.13C129.687 467.81 130.657 468.78 131.337 470.04C132.037 471.28 132.387 472.71 132.387 474.33ZM128.037 473.13C128.017 472.05 127.627 471.19 126.867 470.55C126.107 469.89 125.177 469.56 124.077 469.56C123.037 469.56 122.157 469.88 121.437 470.52C120.737 471.14 120.307 472.01 120.147 473.13H128.037ZM158.493 466.38L153.633 483H149.103L146.073 471.39L143.043 483H138.483L133.593 466.38H137.853L140.793 479.04L143.973 466.38H148.413L151.533 479.01L154.473 466.38H158.493Z" fill="#CDD6F4"/>
<circle cx="249.5" cy="436.5" r="11" stroke="#89B4FA" stroke-width="3"/>
<path fill-rule="evenodd" clip-rule="evenodd" d="M231 435H10C4.47715 435 0 439.477 0 445V651C0 656.523 4.47714 661 9.99999 661H231V658H9.99999C6.134 658 3 654.866 3 651V445C3 441.134 6.13401 438 10 438H231V435ZM268 438H490C493.866 438 497 441.134 497 445V651C497 654.866 493.866 658 490 658H268V661H490C495.523 661 500 656.523 500 651V445C500 439.477 495.523 435 490 435H268V438Z" fill="#89B4FA"/>
<rect x="373.5" y="458.5" width="108" height="29" rx="14.5" fill="#89B4FA" fill-opacity="0.33"/>
<rect x="373.5" y="458.5" width="108" height="29" rx="14.5" stroke="#89B4FA"/>
<path d="M399.22 470.24C399.22 470.947 399.053 471.613 398.72 472.24C398.387 472.867 397.853 473.38 397.12 473.78C396.387 474.167 395.447 474.36 394.3 474.36H391.78V480H389.5V466.1H394.3C395.367 466.1 396.267 466.287 397 466.66C397.747 467.02 398.3 467.513 398.66 468.14C399.033 468.767 399.22 469.467 399.22 470.24ZM394.3 472.5C395.167 472.5 395.813 472.307 396.24 471.92C396.667 471.52 396.88 470.96 396.88 470.24C396.88 468.72 396.02 467.96 394.3 467.96H391.78V472.5H394.3ZM403.675 466.1V480H401.395V466.1H403.675ZM416.388 470.24C416.388 470.947 416.221 471.613 415.888 472.24C415.555 472.867 415.021 473.38 414.288 473.78C413.555 474.167 412.615 474.36 411.468 474.36H408.948V480H406.668V466.1H411.468C412.535 466.1 413.435 466.287 414.168 466.66C414.915 467.02 415.468 467.513 415.828 468.14C416.201 468.767 416.388 469.467 416.388 470.24ZM411.468 472.5C412.335 472.5 412.981 472.307 413.408 471.92C413.835 471.52 414.048 470.96 414.048 470.24C414.048 468.72 413.188 467.96 411.468 467.96H408.948V472.5H411.468ZM420.843 467.94V472.02H425.643V473.88H420.843V478.14H426.243V480H418.563V466.08H426.243V467.94H420.843ZM431.331 478.16H436.031V480H429.051V466.1H431.331V478.16ZM440.218 466.1V480H437.938V466.1H440.218ZM454.631 480H452.351L445.491 469.62V480H443.211V466.08H445.491L452.351 476.44V466.08H454.631V480ZM459.905 467.94V472.02H464.705V473.88H459.905V478.14H465.305V480H457.625V466.08H465.305V467.94H459.905Z" fill="#CDD6F4"/>
<rect x="104.5" y="507.5" width="290" height="99" rx="8.5" fill="#313244" stroke="#45475A" stroke-width="3"/>
<path d="M143.096 530.45L138.521 548H133.346L130.546 536.45L127.646 548H122.471L118.021 530.45H122.596L125.121 543.225L128.246 530.45H132.946L135.946 543.225L138.496 530.45H143.096ZM153.814 533.9C155.414 533.9 156.698 534.433 157.664 535.5C158.631 536.55 159.114 538 159.114 539.85V548H154.864V540.425C154.864 539.492 154.623 538.767 154.139 538.25C153.656 537.733 153.006 537.475 152.189 537.475C151.373 537.475 150.723 537.733 150.239 538.25C149.756 538.767 149.514 539.492 149.514 540.425V548H145.239V529.5H149.514V535.925C149.948 535.308 150.539 534.817 151.289 534.45C152.039 534.083 152.881 533.9 153.814 533.9ZM164.235 532.6C163.485 532.6 162.868 532.383 162.385 531.95C161.918 531.5 161.685 530.95 161.685 530.3C161.685 529.633 161.918 529.083 162.385 528.65C162.868 528.2 163.485 527.975 164.235 527.975C164.968 527.975 165.568 528.2 166.035 528.65C166.518 529.083 166.76 529.633 166.76 530.3C166.76 530.95 166.518 531.5 166.035 531.95C165.568 532.383 164.968 532.6 164.235 532.6ZM166.36 534.05V548H162.085V534.05H166.36ZM168.608 541.025C168.608 539.575 168.9 538.308 169.483 537.225C170.083 536.142 170.908 535.308 171.958 534.725C173.025 534.142 174.242 533.85 175.608 533.85C177.358 533.85 178.817 534.308 179.983 535.225C181.167 536.142 181.942 537.433 182.308 539.1H177.758C177.375 538.033 176.633 537.5 175.533 537.5C174.75 537.5 174.125 537.808 173.658 538.425C173.192 539.025 172.958 539.892 172.958 541.025C172.958 542.158 173.192 543.033 173.658 543.65C174.125 544.25 174.75 544.55 175.533 544.55C176.633 544.55 177.375 544.017 177.758 542.95H182.308C181.942 544.583 181.167 545.867 179.983 546.8C178.8 547.733 177.342 548.2 175.608 548.2C174.242 548.2 173.025 547.908 171.958 547.325C170.908 546.742 170.083 545.908 169.483 544.825C168.9 543.742 168.608 542.475 168.608 541.025ZM193.17 533.9C194.77 533.9 196.053 534.433 197.02 535.5C197.987 536.55 198.47 538 198.47 539.85V548H194.22V540.425C194.22 539.492 193.978 538.767 193.495 538.25C193.012 537.733 192.362 537.475 191.545 537.475C190.728 537.475 190.078 537.733 189.595 538.25C189.112 538.767 188.87 539.492 188.87 540.425V548H184.595V529.5H188.87V535.925C189.303 535.308 189.895 534.817 190.645 534.45C191.395 534.083 192.237 533.9 193.17 533.9ZM213.088 548.2C211.722 548.2 210.488 547.908 209.388 547.325C208.305 546.742 207.447 545.908 206.813 544.825C206.197 543.742 205.888 542.475 205.888 541.025C205.888 539.592 206.205 538.333 206.838 537.25C207.472 536.15 208.338 535.308 209.438 534.725C210.538 534.142 211.772 533.85 213.138 533.85C214.505 533.85 215.738 534.142 216.838 534.725C217.938 535.308 218.805 536.15 219.438 537.25C220.072 538.333 220.388 539.592 220.388 541.025C220.388 542.458 220.063 543.725 219.413 544.825C218.78 545.908 217.905 546.742 216.788 547.325C215.688 547.908 214.455 548.2 213.088 548.2ZM213.088 544.5C213.905 544.5 214.597 544.2 215.163 543.6C215.747 543 216.038 542.142 216.038 541.025C216.038 539.908 215.755 539.05 215.188 538.45C214.638 537.85 213.955 537.55 213.138 537.55C212.305 537.55 211.613 537.85 211.063 538.45C210.513 539.033 210.238 539.892 210.238 541.025C210.238 542.142 210.505 543 211.038 543.6C211.588 544.2 212.272 544.5 213.088 544.5ZM231.156 533.9C232.79 533.9 234.09 534.433 235.056 535.5C236.04 536.55 236.531 538 236.531 539.85V548H232.281V540.425C232.281 539.492 232.04 538.767 231.556 538.25C231.073 537.733 230.423 537.475 229.606 537.475C228.79 537.475 228.14 537.733 227.656 538.25C227.173 538.767 226.931 539.492 226.931 540.425V548H222.656V534.05H226.931V535.9C227.365 535.283 227.948 534.8 228.681 534.45C229.415 534.083 230.24 533.9 231.156 533.9ZM252.652 540.8C252.652 541.2 252.627 541.617 252.577 542.05H242.902C242.969 542.917 243.244 543.583 243.727 544.05C244.227 544.5 244.835 544.725 245.552 544.725C246.619 544.725 247.36 544.275 247.777 543.375H252.327C252.094 544.292 251.669 545.117 251.052 545.85C250.452 546.583 249.694 547.158 248.777 547.575C247.86 547.992 246.835 548.2 245.702 548.2C244.335 548.2 243.119 547.908 242.052 547.325C240.985 546.742 240.152 545.908 239.552 544.825C238.952 543.742 238.652 542.475 238.652 541.025C238.652 539.575 238.944 538.308 239.527 537.225C240.127 536.142 240.96 535.308 242.027 534.725C243.094 534.142 244.319 533.85 245.702 533.85C247.052 533.85 248.252 534.133 249.302 534.7C250.352 535.267 251.169 536.075 251.752 537.125C252.352 538.175 252.652 539.4 252.652 540.8ZM248.277 539.675C248.277 538.942 248.027 538.358 247.527 537.925C247.027 537.492 246.402 537.275 245.652 537.275C244.935 537.275 244.327 537.483 243.827 537.9C243.344 538.317 243.044 538.908 242.927 539.675H248.277ZM260.582 548.2C259.366 548.2 258.282 547.992 257.332 547.575C256.382 547.158 255.632 546.592 255.082 545.875C254.532 545.142 254.224 544.325 254.157 543.425H258.382C258.432 543.908 258.657 544.3 259.057 544.6C259.457 544.9 259.949 545.05 260.532 545.05C261.066 545.05 261.474 544.95 261.757 544.75C262.057 544.533 262.207 544.258 262.207 543.925C262.207 543.525 261.999 543.233 261.582 543.05C261.166 542.85 260.491 542.633 259.557 542.4C258.557 542.167 257.724 541.925 257.057 541.675C256.391 541.408 255.816 541 255.332 540.45C254.849 539.883 254.607 539.125 254.607 538.175C254.607 537.375 254.824 536.65 255.257 536C255.707 535.333 256.357 534.808 257.207 534.425C258.074 534.042 259.099 533.85 260.282 533.85C262.032 533.85 263.407 534.283 264.407 535.15C265.424 536.017 266.007 537.167 266.157 538.6H262.207C262.141 538.117 261.924 537.733 261.557 537.45C261.207 537.167 260.741 537.025 260.157 537.025C259.657 537.025 259.274 537.125 259.007 537.325C258.741 537.508 258.607 537.767 258.607 538.1C258.607 538.5 258.816 538.8 259.232 539C259.666 539.2 260.332 539.4 261.232 539.6C262.266 539.867 263.107 540.133 263.757 540.4C264.407 540.65 264.974 541.067 265.457 541.65C265.957 542.217 266.216 542.983 266.232 543.95C266.232 544.767 265.999 545.5 265.532 546.15C265.082 546.783 264.424 547.283 263.557 547.65C262.707 548.017 261.716 548.2 260.582 548.2ZM291.946 533.9C293.679 533.9 295.054 534.425 296.071 535.475C297.104 536.525 297.621 537.983 297.621 539.85V548H293.371V540.425C293.371 539.525 293.129 538.833 292.646 538.35C292.179 537.85 291.529 537.6 290.696 537.6C289.862 537.6 289.204 537.85 288.721 538.35C288.254 538.833 288.021 539.525 288.021 540.425V548H283.771V540.425C283.771 539.525 283.529 538.833 283.046 538.35C282.579 537.85 281.929 537.6 281.096 537.6C280.262 537.6 279.604 537.85 279.121 538.35C278.654 538.833 278.421 539.525 278.421 540.425V548H274.146V534.05H278.421V535.8C278.854 535.217 279.421 534.758 280.121 534.425C280.821 534.075 281.612 533.9 282.496 533.9C283.546 533.9 284.479 534.125 285.296 534.575C286.129 535.025 286.779 535.667 287.246 536.5C287.729 535.733 288.387 535.108 289.221 534.625C290.054 534.142 290.962 533.9 291.946 533.9ZM313.761 540.8C313.761 541.2 313.736 541.617 313.686 542.05H304.011C304.077 542.917 304.352 543.583 304.836 544.05C305.336 544.5 305.944 544.725 306.661 544.725C307.727 544.725 308.469 544.275 308.886 543.375H313.436C313.202 544.292 312.777 545.117 312.161 545.85C311.561 546.583 310.802 547.158 309.886 547.575C308.969 547.992 307.944 548.2 306.811 548.2C305.444 548.2 304.227 547.908 303.161 547.325C302.094 546.742 301.261 545.908 300.661 544.825C300.061 543.742 299.761 542.475 299.761 541.025C299.761 539.575 300.052 538.308 300.636 537.225C301.236 536.142 302.069 535.308 303.136 534.725C304.202 534.142 305.427 533.85 306.811 533.85C308.161 533.85 309.361 534.133 310.411 534.7C311.461 535.267 312.277 536.075 312.861 537.125C313.461 538.175 313.761 539.4 313.761 540.8ZM309.386 539.675C309.386 538.942 309.136 538.358 308.636 537.925C308.136 537.492 307.511 537.275 306.761 537.275C306.044 537.275 305.436 537.483 304.936 537.9C304.452 538.317 304.152 538.908 304.036 539.675H309.386ZM324.516 533.9C326.149 533.9 327.449 534.433 328.416 535.5C329.399 536.55 329.891 538 329.891 539.85V548H325.641V540.425C325.641 539.492 325.399 538.767 324.916 538.25C324.432 537.733 323.782 537.475 322.966 537.475C322.149 537.475 321.499 537.733 321.016 538.25C320.532 538.767 320.291 539.492 320.291 540.425V548H316.016V534.05H320.291V535.9C320.724 535.283 321.307 534.8 322.041 534.45C322.774 534.083 323.599 533.9 324.516 533.9ZM340.637 544.375V548H338.462C336.912 548 335.703 547.625 334.837 546.875C333.97 546.108 333.537 544.867 333.537 543.15V537.6H331.837V534.05H333.537V530.65H337.812V534.05H340.612V537.6H337.812V543.2C337.812 543.617 337.912 543.917 338.112 544.1C338.312 544.283 338.645 544.375 339.112 544.375H340.637ZM345.168 532.6C344.418 532.6 343.801 532.383 343.318 531.95C342.851 531.5 342.618 530.95 342.618 530.3C342.618 529.633 342.851 529.083 343.318 528.65C343.801 528.2 344.418 527.975 345.168 527.975C345.901 527.975 346.501 528.2 346.968 528.65C347.451 529.083 347.693 529.633 347.693 530.3C347.693 530.95 347.451 531.5 346.968 531.95C346.501 532.383 345.901 532.6 345.168 532.6ZM347.293 534.05V548H343.018V534.05H347.293ZM356.741 548.2C355.374 548.2 354.141 547.908 353.041 547.325C351.957 546.742 351.099 545.908 350.466 544.825C349.849 543.742 349.541 542.475 349.541 541.025C349.541 539.592 349.857 538.333 350.491 537.25C351.124 536.15 351.991 535.308 353.091 534.725C354.191 534.142 355.424 533.85 356.791 533.85C358.157 533.85 359.391 534.142 360.491 534.725C361.591 535.308 362.457 536.15 363.091 537.25C363.724 538.333 364.041 539.592 364.041 541.025C364.041 542.458 363.716 543.725 363.066 544.825C362.432 545.908 361.557 546.742 360.441 547.325C359.341 547.908 358.107 548.2 356.741 548.2ZM356.741 544.5C357.557 544.5 358.249 544.2 358.816 543.6C359.399 543 359.691 542.142 359.691 541.025C359.691 539.908 359.407 539.05 358.841 538.45C358.291 537.85 357.607 537.55 356.791 537.55C355.957 537.55 355.266 537.85 354.716 538.45C354.166 539.033 353.891 539.892 353.891 541.025C353.891 542.142 354.157 543 354.691 543.6C355.241 544.2 355.924 544.5 356.741 544.5ZM374.809 533.9C376.442 533.9 377.742 534.433 378.709 535.5C379.692 536.55 380.184 538 380.184 539.85V548H375.934V540.425C375.934 539.492 375.692 538.767 375.209 538.25C374.725 537.733 374.075 537.475 373.259 537.475C372.442 537.475 371.792 537.733 371.309 538.25C370.825 538.767 370.584 539.492 370.584 540.425V548H366.309V534.05H370.584V535.9C371.017 535.283 371.6 534.8 372.334 534.45C373.067 534.083 373.892 533.9 374.809 533.9ZM172.057 582.375V586H169.882C168.332 586 167.124 585.625 166.257 584.875C165.391 584.108 164.957 582.867 164.957 581.15V575.6H163.257V572.05H164.957V568.65H169.232V572.05H172.032V575.6H169.232V581.2C169.232 581.617 169.332 581.917 169.532 582.1C169.732 582.283 170.066 582.375 170.532 582.375H172.057ZM183.014 571.9C184.614 571.9 185.897 572.433 186.864 573.5C187.83 574.55 188.314 576 188.314 577.85V586H184.064V578.425C184.064 577.492 183.822 576.767 183.339 576.25C182.855 575.733 182.205 575.475 181.389 575.475C180.572 575.475 179.922 575.733 179.439 576.25C178.955 576.767 178.714 577.492 178.714 578.425V586H174.439V567.5H178.714V573.925C179.147 573.308 179.739 572.817 180.489 572.45C181.239 572.083 182.08 571.9 183.014 571.9ZM204.434 578.8C204.434 579.2 204.409 579.617 204.359 580.05H194.684C194.751 580.917 195.026 581.583 195.509 582.05C196.009 582.5 196.618 582.725 197.334 582.725C198.401 582.725 199.143 582.275 199.559 581.375H204.109C203.876 582.292 203.451 583.117 202.834 583.85C202.234 584.583 201.476 585.158 200.559 585.575C199.643 585.992 198.618 586.2 197.484 586.2C196.118 586.2 194.901 585.908 193.834 585.325C192.768 584.742 191.934 583.908 191.334 582.825C190.734 581.742 190.434 580.475 190.434 579.025C190.434 577.575 190.726 576.308 191.309 575.225C191.909 574.142 192.743 573.308 193.809 572.725C194.876 572.142 196.101 571.85 197.484 571.85C198.834 571.85 200.034 572.133 201.084 572.7C202.134 573.267 202.951 574.075 203.534 575.125C204.134 576.175 204.434 577.4 204.434 578.8ZM200.059 577.675C200.059 576.942 199.809 576.358 199.309 575.925C198.809 575.492 198.184 575.275 197.434 575.275C196.718 575.275 196.109 575.483 195.609 575.9C195.126 576.317 194.826 576.908 194.709 577.675H200.059ZM329.49 567.475C331.274 567.475 332.699 567.942 333.765 568.875C334.849 569.808 335.39 571.125 335.39 572.825C335.39 574.392 334.874 575.617 333.84 576.5C332.824 577.367 331.474 577.808 329.79 577.825L329.665 579.7H325.915L325.79 575.05H327.29C328.574 575.05 329.549 574.892 330.215 574.575C330.899 574.258 331.24 573.683 331.24 572.85C331.24 572.267 331.082 571.808 330.765 571.475C330.449 571.142 330.007 570.975 329.44 570.975C328.84 570.975 328.374 571.15 328.04 571.5C327.707 571.833 327.54 572.292 327.54 572.875H323.515C323.482 571.858 323.69 570.942 324.14 570.125C324.607 569.308 325.29 568.667 326.19 568.2C327.107 567.717 328.207 567.475 329.49 567.475ZM327.84 586.2C327.09 586.2 326.474 585.983 325.99 585.55C325.524 585.1 325.29 584.55 325.29 583.9C325.29 583.233 325.524 582.675 325.99 582.225C326.474 581.775 327.09 581.55 327.84 581.55C328.574 581.55 329.174 581.775 329.64 582.225C330.124 582.675 330.365 583.233 330.365 583.9C330.365 584.55 330.124 585.1 329.64 585.55C329.174 585.983 328.574 586.2 327.84 586.2Z" fill="#CDD6F4"/>
<path d="M220.938 586L217.288 579.375H216.263V586H211.988V568.45H219.163C220.546 568.45 221.721 568.692 222.688 569.175C223.671 569.658 224.404 570.325 224.888 571.175C225.371 572.008 225.613 572.942 225.613 573.975C225.613 575.142 225.279 576.183 224.613 577.1C223.963 578.017 222.996 578.667 221.713 579.05L225.763 586H220.938ZM216.263 576.35H218.913C219.696 576.35 220.279 576.158 220.663 575.775C221.063 575.392 221.263 574.85 221.263 574.15C221.263 573.483 221.063 572.958 220.663 572.575C220.279 572.192 219.696 572 218.913 572H216.263V576.35ZM241.446 578.8C241.446 579.2 241.421 579.617 241.371 580.05H231.696C231.763 580.917 232.038 581.583 232.521 582.05C233.021 582.5 233.629 582.725 234.346 582.725C235.413 582.725 236.154 582.275 236.571 581.375H241.121C240.888 582.292 240.463 583.117 239.846 583.85C239.246 584.583 238.488 585.158 237.571 585.575C236.654 585.992 235.629 586.2 234.496 586.2C233.129 586.2 231.913 585.908 230.846 585.325C229.779 584.742 228.946 583.908 228.346 582.825C227.746 581.742 227.446 580.475 227.446 579.025C227.446 577.575 227.738 576.308 228.321 575.225C228.921 574.142 229.754 573.308 230.821 572.725C231.888 572.142 233.113 571.85 234.496 571.85C235.846 571.85 237.046 572.133 238.096 572.7C239.146 573.267 239.963 574.075 240.546 575.125C241.146 576.175 241.446 577.4 241.446 578.8ZM237.071 577.675C237.071 576.942 236.821 576.358 236.321 575.925C235.821 575.492 235.196 575.275 234.446 575.275C233.729 575.275 233.121 575.483 232.621 575.9C232.138 576.317 231.838 576.908 231.721 577.675H237.071ZM247.976 574.025C248.393 573.375 248.968 572.85 249.701 572.45C250.435 572.05 251.293 571.85 252.276 571.85C253.426 571.85 254.468 572.142 255.401 572.725C256.335 573.308 257.068 574.142 257.601 575.225C258.151 576.308 258.426 577.567 258.426 579C258.426 580.433 258.151 581.7 257.601 582.8C257.068 583.883 256.335 584.725 255.401 585.325C254.468 585.908 253.426 586.2 252.276 586.2C251.31 586.2 250.451 586 249.701 585.6C248.968 585.2 248.393 584.683 247.976 584.05V592.65H243.701V572.05H247.976V574.025ZM254.076 579C254.076 577.933 253.776 577.1 253.176 576.5C252.593 575.883 251.868 575.575 251.001 575.575C250.151 575.575 249.426 575.883 248.826 576.5C248.243 577.117 247.951 577.958 247.951 579.025C247.951 580.092 248.243 580.933 248.826 581.55C249.426 582.167 250.151 582.475 251.001 582.475C251.851 582.475 252.576 582.167 253.176 581.55C253.776 580.917 254.076 580.067 254.076 579ZM274.444 572.05V586H270.169V584.1C269.736 584.717 269.144 585.217 268.394 585.6C267.661 585.967 266.844 586.15 265.944 586.15C264.877 586.15 263.936 585.917 263.119 585.45C262.302 584.967 261.669 584.275 261.219 583.375C260.769 582.475 260.544 581.417 260.544 580.2V572.05H264.794V579.625C264.794 580.558 265.036 581.283 265.519 581.8C266.002 582.317 266.652 582.575 267.469 582.575C268.302 582.575 268.961 582.317 269.444 581.8C269.927 581.283 270.169 580.558 270.169 579.625V572.05H274.444ZM281.79 574.025C282.19 573.375 282.765 572.85 283.515 572.45C284.265 572.05 285.123 571.85 286.09 571.85C287.24 571.85 288.282 572.142 289.215 572.725C290.148 573.308 290.882 574.142 291.415 575.225C291.965 576.308 292.24 577.567 292.24 579C292.24 580.433 291.965 581.7 291.415 582.8C290.882 583.883 290.148 584.725 289.215 585.325C288.282 585.908 287.24 586.2 286.09 586.2C285.107 586.2 284.248 586.008 283.515 585.625C282.782 585.225 282.207 584.7 281.79 584.05V586H277.515V567.5H281.79V574.025ZM287.89 579C287.89 577.933 287.59 577.1 286.99 576.5C286.407 575.883 285.682 575.575 284.815 575.575C283.965 575.575 283.24 575.883 282.64 576.5C282.057 577.117 281.765 577.958 281.765 579.025C281.765 580.092 282.057 580.933 282.64 581.55C283.24 582.167 283.965 582.475 284.815 582.475C285.665 582.475 286.39 582.167 286.99 581.55C287.59 580.917 287.89 580.067 287.89 579ZM298.758 567.5V586H294.483V567.5H298.758ZM304.006 570.6C303.256 570.6 302.639 570.383 302.156 569.95C301.689 569.5 301.456 568.95 301.456 568.3C301.456 567.633 301.689 567.083 302.156 566.65C302.639 566.2 303.256 565.975 304.006 565.975C304.739 565.975 305.339 566.2 305.806 566.65C306.289 567.083 306.531 567.633 306.531 568.3C306.531 568.95 306.289 569.5 305.806 569.95C305.339 570.383 304.739 570.6 304.006 570.6ZM306.131 572.05V586H301.856V572.05H306.131ZM308.379 579.025C308.379 577.575 308.67 576.308 309.254 575.225C309.854 574.142 310.679 573.308 311.729 572.725C312.795 572.142 314.012 571.85 315.379 571.85C317.129 571.85 318.587 572.308 319.754 573.225C320.937 574.142 321.712 575.433 322.079 577.1H317.529C317.145 576.033 316.404 575.5 315.304 575.5C314.52 575.5 313.895 575.808 313.429 576.425C312.962 577.025 312.729 577.892 312.729 579.025C312.729 580.158 312.962 581.033 313.429 581.65C313.895 582.25 314.52 582.55 315.304 582.55C316.404 582.55 317.145 582.017 317.529 580.95H322.079C321.712 582.583 320.937 583.867 319.754 584.8C318.57 585.733 317.112 586.2 315.379 586.2C314.012 586.2 312.795 585.908 311.729 585.325C310.679 584.742 309.854 583.908 309.254 582.825C308.67 581.742 308.379 580.475 308.379 579.025Z" fill="url(#paint0_linear_110_129)"/>
<line x1="249.5" y1="237" x2="249.5" y2="424" stroke="url(#paint1_linear_110_129)" stroke-width="3" stroke-dasharray="10 10"/>
<rect x="231" y="658" width="37" height="3" fill="#89B5FA"/>
<defs>
<linearGradient id="paint0_linear_110_129" x1="249.5" y1="574" x2="370.096" y2="574" gradientUnits="userSpaceOnUse">
<stop stop-color="#F38BA8"/>
<stop offset="1" stop-color="#F9E2AF"/>
</linearGradient>
<linearGradient id="paint1_linear_110_129" x1="247.5" y1="237" x2="247.5" y2="424" gradientUnits="userSpaceOnUse">
<stop stop-color="#A6E3A1"/>
<stop offset="1" stop-color="#89B4FA"/>
</linearGradient>
</defs>
</svg>
