<svg width="1920" height="552" viewBox="0 0 1920 552" fill="none" xmlns="http://www.w3.org/2000/svg">
<rect width="1920" height="552" fill="#1A1C27"/>
<circle cx="388" cy="224" r="24" fill="#F8D762"/>
<circle cx="345" cy="310" r="24" fill="#F8D762"/>
<circle cx="24" cy="24" r="24" transform="matrix(-1 0 0 1 455 286)" fill="#F8D762"/>
<path d="M815.98 345.195C796.71 345.195 780.238 338.359 766.566 324.688C752.895 311.016 746.059 294.544 746.059 275.273C746.059 255.938 752.895 239.434 766.566 225.762C780.238 212.09 796.71 205.254 815.98 205.254C835.316 205.254 851.82 212.057 865.492 225.664L846.156 245C837.823 236.667 827.764 232.5 815.98 232.5C804.262 232.5 794.203 236.667 785.805 245C777.471 253.398 773.305 263.49 773.305 275.273C773.305 286.992 777.471 297.051 785.805 305.449C794.203 313.783 804.262 317.949 815.98 317.949C827.829 317.949 837.921 313.783 846.254 305.449L865.492 324.688C851.82 338.359 835.316 345.195 815.98 345.195ZM885.219 204.961H915.492V317.461H977.309V344.707H915.492V345H885.219V204.961ZM1055.63 345C1039.55 345 1025.84 339.303 1014.52 327.91C1003.12 316.582 997.426 302.878 997.426 286.797V205.254H1024.67V286.797C1024.67 295.326 1027.7 302.617 1033.75 308.672C1039.81 314.727 1047.1 317.754 1055.63 317.754C1064.09 317.754 1071.35 314.727 1077.41 308.672C1083.46 302.617 1086.49 295.326 1086.49 286.797V204.961H1113.73V286.797C1113.73 302.878 1108.07 316.582 1096.74 327.91C1085.35 339.303 1071.64 345 1055.63 345ZM1190.1 253.008L1197.23 256.719C1205.69 261.732 1212.11 266.908 1216.47 272.246C1222.65 279.733 1225.75 288.327 1225.75 298.027C1225.75 310.853 1221.25 321.823 1212.27 330.938C1203.29 340.052 1192.45 344.74 1179.75 345H1178.87C1166.11 344.74 1155.24 340.052 1146.25 330.938C1137.27 321.823 1132.78 310.853 1132.78 298.027C1132.78 295.879 1132.94 293.698 1133.27 291.484H1161.2C1160.8 292.526 1160.51 293.568 1160.32 294.609C1160.12 295.716 1160.02 296.855 1160.02 298.027C1160.02 303.431 1161.91 308.021 1165.69 311.797C1169.4 315.638 1173.92 317.624 1179.26 317.754C1184.6 317.624 1189.12 315.638 1192.84 311.797C1196.61 308.021 1198.5 303.431 1198.5 298.027C1198.5 295.033 1197.56 292.331 1195.67 289.922C1193.45 286.992 1189.45 283.802 1183.66 280.352L1176.62 276.738C1175.84 276.217 1174.51 275.469 1172.62 274.492C1165.72 270.846 1160.58 267.331 1157.19 263.945C1151.27 257.956 1147.98 250.534 1147.33 241.68C1146.61 232.174 1149.61 223.809 1156.31 216.582C1163.34 209.03 1172.04 205.156 1182.39 204.961H1182.97C1192.74 205.091 1201.04 208.639 1207.88 215.605C1214.71 222.572 1218.13 230.938 1218.13 240.703C1218.13 240.833 1218.1 241.517 1218.03 242.754H1190.59C1190.79 241.973 1190.88 241.289 1190.88 240.703C1190.88 238.424 1190.07 236.471 1188.44 234.844C1186.88 233.216 1184.96 232.337 1182.68 232.207C1180.14 232.337 1177.99 233.314 1176.23 235.137C1175 236.504 1174.44 238.001 1174.57 239.629C1174.7 241.908 1175.49 243.763 1176.92 245.195C1178.22 246.367 1181.02 248.092 1185.32 250.371C1187.46 251.478 1189.06 252.357 1190.1 253.008ZM1336.59 205.254H1368.71L1318.23 345H1295.96L1245.47 205.254H1277.6L1307.09 286.895L1336.59 205.254ZM1390.49 345.293V205.059H1420.86V345.293H1390.49ZM1441.18 204.961H1533.27V232.207H1471.45V279.961H1508.27V307.109H1471.45V317.559H1533.27V344.707H1441.18V204.961ZM1691.47 204.961H1723.6L1673.11 344.707H1650.84L1638.05 309.355L1625.26 344.707H1602.99L1552.5 204.961H1584.63L1614.12 286.602L1621.94 264.824L1600.36 204.961H1632.48L1638.05 220.293L1643.62 204.961H1675.75L1654.16 264.824L1661.98 286.602L1691.47 204.961Z" fill="#E3E7F5"/>
<path d="M253 200V166.5C253 157.615 256.529 149.094 262.812 142.812C269.094 136.529 277.615 133 286.5 133H320" stroke="#EE436C" stroke-width="40" stroke-linecap="round" stroke-linejoin="round"/>
<path d="M253 335V368.5C253 377.385 256.529 385.906 262.812 392.188C269.094 398.471 277.615 402 286.5 402H320" stroke="#33B6FF" stroke-width="40" stroke-linecap="round" stroke-linejoin="round"/>
<path d="M455 133H488.5C497.385 133 505.906 136.529 512.188 142.812C518.471 149.094 522 157.615 522 166.5V200" stroke="#33B6FF" stroke-width="40" stroke-linecap="round" stroke-linejoin="round"/>
<path d="M455 402H488.5C497.385 402 505.906 398.471 512.188 392.188C518.471 385.906 522 377.385 522 368.5V335" stroke="#EE436C" stroke-width="40" stroke-linecap="round" stroke-linejoin="round"/>
</svg>
