<svg width="1920" height="324" viewBox="0 0 1920 324" fill="none" xmlns="http://www.w3.org/2000/svg">
<rect width="1920" height="324" fill="#1A1C27"/>
<path d="M428.692 164.44H465.533V198.059C455.328 208.02 443.097 213 428.839 213C414.386 213 402.032 207.873 391.778 197.619C381.524 187.365 376.397 175.012 376.397 160.559C376.397 146.105 381.524 133.728 391.778 123.425C402.032 113.171 414.386 108.044 428.839 108.044C443.292 108.044 455.646 113.171 465.899 123.425L451.471 137.854C445.221 131.604 437.677 128.479 428.839 128.479C420.001 128.479 412.457 131.628 406.207 137.927C399.957 144.177 396.832 151.721 396.832 160.559C396.832 169.396 399.957 176.94 406.207 183.19C412.457 189.44 420.001 192.565 428.839 192.565C434.698 192.565 440.118 191.101 445.099 188.171V184.875H428.692V164.44ZM529.107 128.405C520.416 128.552 512.994 131.726 506.842 137.927C500.738 144.177 497.687 151.647 497.687 160.339C497.687 169.079 500.738 176.574 506.842 182.824C512.994 189.025 520.416 192.199 529.107 192.346C537.799 192.199 545.221 189.025 551.373 182.824C557.477 176.574 560.528 169.079 560.528 160.339C560.528 151.647 557.477 144.177 551.373 137.927C545.221 131.726 537.799 128.552 529.107 128.405ZM529.62 212.78H528.595C514.386 212.487 502.276 207.238 492.267 197.033C482.257 186.828 477.252 174.597 477.252 160.339C477.252 146.13 482.257 133.923 492.267 123.718C502.276 113.513 514.386 108.264 528.595 107.971H529.62C543.878 108.264 555.987 113.513 565.948 123.718C575.958 133.923 580.963 146.13 580.963 160.339C580.963 174.597 575.958 186.828 565.948 197.033C555.987 207.238 543.878 212.487 529.62 212.78ZM630.035 108.19H714.85V128.625H683.795V213H661.09V128.625H630.035V108.19ZM778.717 128.405C770.025 128.552 762.604 131.726 756.451 137.927C750.348 144.177 747.296 151.647 747.296 160.339C747.296 169.079 750.348 176.574 756.451 182.824C762.604 189.025 770.025 192.199 778.717 192.346C787.408 192.199 794.83 189.025 800.982 182.824C807.086 176.574 810.138 169.079 810.138 160.339C810.138 151.647 807.086 144.177 800.982 137.927C794.83 131.726 787.408 128.552 778.717 128.405ZM779.229 212.78H778.204C763.995 212.487 751.886 207.238 741.876 197.033C731.866 186.828 726.861 174.597 726.861 160.339C726.861 146.13 731.866 133.923 741.876 123.718C751.886 113.513 763.995 108.264 778.204 107.971H779.229C793.487 108.264 805.597 113.513 815.558 123.718C825.567 133.923 830.572 146.13 830.572 160.339C830.572 174.597 825.567 186.828 815.558 197.033C805.597 207.238 793.487 212.487 779.229 212.78Z" fill="#E3E7F5"/>
<path d="M902.057 192.639H920.514C929.352 192.639 936.896 189.489 943.146 183.19C949.396 176.94 952.521 169.396 952.521 160.559C952.521 151.721 949.396 144.152 943.146 137.854C936.896 131.604 929.352 128.479 920.514 128.479H902.057V192.639ZM879.352 107.897L920.514 108.044C934.967 108.044 947.32 113.171 957.574 123.425C967.877 133.679 973.028 146.057 973.028 160.559C973.028 175.012 967.877 187.39 957.574 197.692C947.32 207.946 934.967 213.073 920.514 213.073H879.352V107.897ZM1036.09 128.405C1027.4 128.552 1019.98 131.726 1013.82 137.927C1007.72 144.177 1004.67 151.647 1004.67 160.339C1004.67 169.079 1007.72 176.574 1013.82 182.824C1019.98 189.025 1027.4 192.199 1036.09 192.346C1044.78 192.199 1052.2 189.025 1058.36 182.824C1064.46 176.574 1067.51 169.079 1067.51 160.339C1067.51 151.647 1064.46 144.177 1058.36 137.927C1052.2 131.726 1044.78 128.552 1036.09 128.405ZM1036.6 212.78H1035.58C1021.37 212.487 1009.26 207.238 999.249 197.033C989.239 186.828 984.234 174.597 984.234 160.339C984.234 146.13 989.239 133.923 999.249 123.718C1009.26 113.513 1021.37 108.264 1035.58 107.971H1036.6C1050.86 108.264 1062.97 113.513 1072.93 123.718C1082.94 133.923 1087.95 146.13 1087.95 160.339C1087.95 174.597 1082.94 186.828 1072.93 197.033C1062.97 207.238 1050.86 212.487 1036.6 212.78ZM1152.18 213.146C1137.73 213.146 1125.37 208.02 1115.12 197.766C1104.86 187.512 1099.74 175.158 1099.74 160.705C1099.74 146.203 1104.86 133.825 1115.12 123.571C1125.37 113.317 1137.73 108.19 1152.18 108.19C1166.68 108.19 1179.06 113.293 1189.31 123.498L1174.81 138C1168.56 131.75 1161.02 128.625 1152.18 128.625C1143.39 128.625 1135.85 131.75 1129.55 138C1123.3 144.299 1120.17 151.867 1120.17 160.705C1120.17 169.494 1123.3 177.038 1129.55 183.337C1135.85 189.587 1143.39 192.712 1152.18 192.712C1161.07 192.712 1168.63 189.587 1174.88 183.337L1189.31 197.766C1179.06 208.02 1166.68 213.146 1152.18 213.146ZM1247.32 144.006L1252.67 146.789C1259.01 150.549 1263.82 154.431 1267.1 158.435C1271.73 164.05 1274.05 170.495 1274.05 177.771C1274.05 187.39 1270.68 195.617 1263.95 202.453C1257.21 209.289 1249.08 212.805 1239.56 213H1238.9C1229.33 212.805 1221.17 209.289 1214.43 202.453C1207.7 195.617 1204.33 187.39 1204.33 177.771C1204.33 176.159 1204.45 174.523 1204.69 172.863H1225.64C1225.35 173.645 1225.13 174.426 1224.98 175.207C1224.83 176.037 1224.76 176.892 1224.76 177.771C1224.76 181.823 1226.18 185.266 1229.01 188.098C1231.79 190.979 1235.19 192.468 1239.19 192.565C1243.19 192.468 1246.59 190.979 1249.37 188.098C1252.2 185.266 1253.62 181.823 1253.62 177.771C1253.62 175.524 1252.91 173.498 1251.5 171.691C1249.83 169.494 1246.83 167.102 1242.49 164.514L1237.21 161.804C1236.63 161.413 1235.63 160.852 1234.21 160.119C1229.03 157.385 1225.18 154.748 1222.64 152.209C1218.19 147.717 1215.73 142.15 1215.24 135.51C1214.7 128.381 1216.95 122.106 1221.98 116.687C1227.25 111.022 1233.77 108.117 1241.53 107.971H1241.97C1249.3 108.068 1255.52 110.729 1260.65 115.954C1265.78 121.179 1268.34 127.453 1268.34 134.777C1268.34 134.875 1268.32 135.388 1268.27 136.315H1247.69C1247.83 135.729 1247.91 135.217 1247.91 134.777C1247.91 133.068 1247.3 131.604 1246.08 130.383C1244.9 129.162 1243.46 128.503 1241.75 128.405C1239.85 128.503 1238.24 129.235 1236.92 130.603C1235.99 131.628 1235.58 132.751 1235.67 133.972C1235.77 135.681 1236.36 137.072 1237.43 138.146C1238.41 139.025 1240.51 140.319 1243.73 142.028C1245.34 142.858 1246.54 143.518 1247.32 144.006Z" fill="#F8D762"/>
<path d="M1459.07 95C1445.23 95 1434 106.254 1434 120.125V203.875C1434 217.746 1445.23 229 1459.07 229H1534.29H1542.64C1547.27 229 1551 225.257 1551 220.625C1551 215.993 1547.27 212.25 1542.64 212.25V195.5C1547.27 195.5 1551 191.757 1551 187.125V103.375C1551 98.7426 1547.27 95 1542.64 95H1534.29H1459.07ZM1459.07 195.5H1525.93V212.25H1459.07C1454.45 212.25 1450.71 208.507 1450.71 203.875C1450.71 199.243 1454.45 195.5 1459.07 195.5ZM1467.43 132.688C1467.43 130.384 1469.31 128.5 1471.61 128.5H1521.75C1524.05 128.5 1525.93 130.384 1525.93 132.688C1525.93 134.991 1524.05 136.875 1521.75 136.875H1471.61C1469.31 136.875 1467.43 134.991 1467.43 132.688ZM1471.61 145.25H1521.75C1524.05 145.25 1525.93 147.134 1525.93 149.438C1525.93 151.741 1524.05 153.625 1521.75 153.625H1471.61C1469.31 153.625 1467.43 151.741 1467.43 149.438C1467.43 147.134 1469.31 145.25 1471.61 145.25Z" fill="#E3E7F5"/>
</svg>
