<svg width="300" height="300" viewBox="0 0 300 300" fill="none" xmlns="http://www.w3.org/2000/svg">
<path d="M21.4285 0C9.57593 0 0 9.57568 0 21.4287V85.7144C0 97.5669 9.57593 107.143 21.4285 107.143C33.2812 107.143 42.8572 97.5669 42.8572 85.7144V42.8569H85.7144C97.5669 42.8569 107.143 33.2812 107.143 21.4287C107.143 9.57568 97.5669 0 85.7144 0H21.4285Z" fill="#F38BA8"/>
<path d="M214.286 0C202.433 0 192.857 9.57568 192.857 21.4287C192.857 33.2812 202.433 42.8569 214.286 42.8569H257.143V85.7144C257.143 97.5669 266.719 107.143 278.572 107.143C290.424 107.143 300 97.5669 300 85.7144V21.4287C300 9.57568 290.424 0 278.572 0H214.286Z" fill="#89B4FA"/>
<path d="M42.8572 214.286C42.8572 202.433 33.2812 192.857 21.4285 192.857C9.57593 192.857 0 202.433 0 214.286V278.571C0 290.424 9.57593 300 21.4285 300H85.7144C97.5669 300 107.143 290.424 107.143 278.571C107.143 266.719 97.5669 257.143 85.7144 257.143H42.8572V214.286Z" fill="#89B4FA"/>
<path d="M300 214.286C300 202.433 290.424 192.857 278.572 192.857C266.719 192.857 257.143 202.433 257.143 214.286V257.143H214.286C202.433 257.143 192.857 266.719 192.857 278.571C192.857 290.424 202.433 300 214.286 300H278.572C290.424 300 300 290.424 300 278.571V214.286Z" fill="#F38BA8"/>
<circle cx="150" cy="107" r="24" fill="#F9E2AF"/>
<circle cx="107" cy="193" r="24" fill="#F9E2AF"/>
<circle cx="24" cy="24" r="24" transform="matrix(-1 0 0 1 217 169)" fill="#F9E2AF"/>
</svg>
