<svg width="309" height="309" viewBox="0 0 309 309" fill="none" xmlns="http://www.w3.org/2000/svg">
<circle cx="155" cy="111" r="24" fill="#F8D762"/>
<circle cx="112" cy="197" r="24" fill="#F8D762"/>
<circle cx="24" cy="24" r="24" transform="matrix(-1 0 0 1 222 173)" fill="#F8D762"/>
<path d="M20 87V53.5C20 44.6152 23.5295 36.0944 29.8119 29.8119C36.0944 23.5295 44.6152 20 53.5 20H87" stroke="#EE436C" stroke-width="40" stroke-linecap="round" stroke-linejoin="round"/>
<path d="M20 222V255.5C20 264.385 23.5295 272.906 29.8119 279.188C36.0944 285.471 44.6152 289 53.5 289H87" stroke="#33B6FF" stroke-width="40" stroke-linecap="round" stroke-linejoin="round"/>
<path d="M222 20H255.5C264.385 20 272.906 23.5295 279.188 29.8119C285.471 36.0944 289 44.6152 289 53.5V87" stroke="#33B6FF" stroke-width="40" stroke-linecap="round" stroke-linejoin="round"/>
<path d="M222 289H255.5C264.385 289 272.906 285.471 279.188 279.188C285.471 272.906 289 264.385 289 255.5V222" stroke="#EE436C" stroke-width="40" stroke-linecap="round" stroke-linejoin="round"/>
</svg>
